<svg width="99" height="122" viewBox="0 0 99 122" fill="none" xmlns="http://www.w3.org/2000/svg">
<path d="M98.2697 36.2026C98.2776 36.1186 98.2643 36.029 98.261 35.9404C97.7369 35.4071 97.2028 34.9475 96.5584 35.1336C96.5258 35.1427 96.4593 34.9237 96.4306 34.7955C96.4233 34.7614 96.4932 34.6343 96.5364 34.6173C96.7805 34.5208 97.0578 34.7966 97.2973 34.4062C97.3059 34.1623 97.2953 33.8956 97.3292 33.6471C97.3618 33.4088 97.4104 33.1353 97.5068 32.9741C97.689 32.67 97.558 32.5667 97.4263 32.4612C97.2946 32.3557 97.1317 32.3364 97.0199 32.1934C96.5976 31.6544 96.5989 31.4376 96.98 30.5185C96.7519 30.1894 96.414 30.2597 96.2025 29.7797C96.0156 29.3553 96.0635 28.9434 96.0708 28.5269C96.0755 28.2569 96.2198 28.123 96.404 28.1332C96.4898 28.1377 96.5776 27.9981 96.6648 27.9232C96.5504 27.8177 96.4426 27.66 96.3209 27.6191C96.0522 27.5272 95.8088 27.6327 95.6332 28.0435C95.6272 28.0571 95.4583 27.9448 95.4383 27.8472C95.4064 27.6917 95.3951 27.4103 95.4476 27.34C95.5574 27.1947 95.7197 27.1732 95.8487 27.0619C95.9218 26.9984 95.9711 26.8577 96.0309 26.751C95.9438 26.6773 95.86 26.5865 95.7682 26.5343C95.3605 26.3039 95.3632 26.3005 95.5853 25.4642C95.6944 25.6321 95.8041 25.8035 95.9571 26.0395C95.9977 25.7297 96.1021 25.4052 96.0462 25.2645C95.8773 24.8344 95.6465 24.4747 95.4463 24.1013C95.5461 23.8982 95.6984 23.7178 95.7283 23.4908C95.7556 23.2831 95.6857 22.9711 95.596 22.7997C95.3592 22.3492 95.0679 21.9804 95.0333 21.3007C95.0299 21.236 94.8617 21.177 94.7666 21.1486C94.5717 21.0896 94.3442 21.2825 94.1653 20.8593C94.1653 20.5665 94.2172 20.1829 94.152 19.8697C94.0722 19.4862 93.7636 19.274 93.8441 18.7372C93.8514 18.6907 93.7875 18.5829 93.7443 18.5489C93.568 18.4104 93.3851 18.2969 93.2082 18.1596C93.1637 18.1244 93.1357 17.9883 93.0952 17.9815C92.45 17.8703 92.2225 17.2212 92.2631 16.1806C92.2684 16.0467 92.1567 15.772 92.1115 15.78C91.6585 15.856 91.5248 15.1343 91.2329 14.82C91.1165 14.694 90.9356 14.6543 90.7959 14.6963C90.2871 14.8472 90.4481 14.0234 90.2246 13.6035H89.1591C88.182 12.9896 88.6629 11.713 88.3942 10.9527C88.2918 10.9322 88.2419 10.9243 88.1914 10.9129C87.92 10.8494 87.5442 11.1785 87.5169 10.2616C87.509 9.98242 87.2948 9.69646 87.1498 9.46042C86.9736 9.17219 86.786 9.22439 86.6131 9.5183C86.5512 9.62383 86.4681 9.69305 86.3889 9.7861C86.2619 9.40595 85.934 9.28226 85.9573 8.73189C85.9712 8.40281 85.8655 8.24394 85.6912 8.22351C85.3773 8.18834 85.0594 8.16791 84.8692 8.73303C84.7195 8.31543 84.5606 7.91145 84.4269 7.48364C84.3224 7.15002 84.4448 6.60759 84.0351 6.57355C83.811 6.55539 83.5829 6.05836 83.3793 6.10035C82.8852 6.20134 82.4781 5.85523 82.0963 5.50005C81.6255 5.06203 81.2184 4.52981 80.7575 5.4853C80.7129 5.57721 80.5593 5.51253 80.4569 5.52615C80.1749 5.5636 79.9427 5.53069 79.9514 4.87138C79.9547 4.59563 79.8417 4.40726 79.6415 4.44357C79.3302 4.50031 79.3887 4.07704 79.3169 3.75703C79.124 2.90368 78.9983 3.99874 78.7941 3.80696C78.6298 3.52667 78.4443 3.21007 78.2108 2.81176C78.008 2.85602 77.7293 2.80722 77.5251 2.99333C77.3435 3.159 77.2783 3.39731 77.0575 3.04099C76.8573 2.71758 76.5028 2.74935 76.3106 2.32721C76.0785 2.63133 75.9488 3.13858 75.6309 3.28383C75.4639 2.97744 75.5664 2.60296 75.5404 2.26593C75.5019 1.76436 75.2704 1.56691 74.997 1.90621C74.8195 2.12636 74.7609 2.28409 74.5308 1.96749C74.2328 1.5567 73.861 1.56237 73.579 2.14338C73.4972 2.31246 73.4254 2.29998 73.3569 2.06621C73.3356 1.99359 73.329 1.8994 73.3316 1.81656C73.3403 1.55329 73.3077 1.2662 73.1354 1.32293C73.0716 1.34336 73.0583 1.77344 73.011 2.00947C72.9957 2.0855 72.9319 2.20579 72.9113 2.19444C72.8354 2.15359 72.7058 2.05714 72.7084 1.99699C72.735 1.43982 72.622 1.18449 72.2728 1.20605C72.022 1.22194 71.736 1.23783 71.5259 1.05399C71.3423 0.892854 71.2751 0.651147 71.059 1.01428C70.8581 1.3513 70.7943 1.28435 70.5315 1.02108C70.4264 0.91555 70.3699 0.544478 70.1937 0.903067C69.9642 1.36833 69.5292 1.27073 69.3164 1.85061C69.0803 2.49402 68.7131 2.37147 68.352 2.15927C68.4198 1.49429 68.8635 0.867889 68.4405 0.162058C68.2695 0.191562 68.2822 0.86335 67.9809 0.460504C67.5785 -0.0773801 67.1229 -0.0183718 66.7112 0.420787C66.5529 0.589869 66.487 0.612564 66.3653 0.394687C66.3188 0.311848 66.1744 0.244897 66.1545 0.285748C66.0035 0.592138 65.8865 0.738525 65.6956 0.330005C65.4994 -0.0898627 65.2034 0.240357 64.9573 0.133688C64.8436 0.516108 64.7584 0.916685 64.6181 1.25031C64.4086 1.74848 64.1811 1.86763 63.9736 1.68493C63.7661 1.50223 63.8226 1.10619 64.1592 0.385609C63.7654 0.14844 63.7382 0.0996451 63.6258 0.284614C63.262 0.880372 62.9008 0.840654 62.549 0.310714C62.4386 0.143901 62.4199 0.130284 62.3155 0.33114C62.0275 0.884911 61.6936 0.838385 61.3544 0.448022C61.2819 0.365183 61.2061 0.290288 61.1316 0.211988C60.9334 0.780511 60.6029 0.630721 60.2996 0.695403C60.0615 0.746468 59.9544 1.33769 59.6378 1.24804C59.5913 1.23442 59.4755 1.61798 59.4449 1.83926C59.399 2.16607 59.5061 2.55644 59.2926 2.80949C59.256 2.76183 59.1988 2.72665 59.1855 2.66424C59.1536 2.50651 59.1549 2.32721 59.119 2.17175C59.004 1.66904 58.847 1.61344 58.5317 1.95728C58.4526 2.04352 58.3828 2.15473 58.3036 2.2614C58.2072 1.92437 58.1114 1.58961 58.009 1.23102C57.7882 1.60776 57.6019 1.9255 57.413 2.24778C57.3399 2.15473 57.2694 2.05373 57.1922 1.96976C56.9062 1.6611 56.8943 1.66677 56.7087 2.00494C56.9362 2.49743 57.1616 2.98538 57.3272 3.34284C57.8992 3.45745 58.3748 3.18397 58.9388 3.70256C58.5271 3.8342 58.1526 3.76724 57.9744 4.05434C57.6957 4.50485 57.3685 4.27449 57.125 4.49123C56.8444 4.73975 56.6562 5.08699 56.428 4.45151C56.1833 4.54116 55.9086 4.25747 55.6858 4.64783C55.6 4.79876 55.4816 5.15394 55.3665 4.74656C55.3153 4.56499 55.3492 4.14399 55.431 4.0498C55.8381 3.58001 55.9066 2.738 56.1966 2.14792C56.2238 2.09345 56.1759 1.82564 56.1294 1.79387C56.0396 1.73032 55.8913 1.68833 55.8294 1.77117C55.6252 2.04465 55.4244 2.3465 55.2654 2.69488C54.9714 3.33943 54.4892 3.44156 54.1314 3.89774C54.0795 3.96356 53.8887 3.88867 53.8601 3.79334C53.7969 3.58228 53.7503 3.29631 53.7842 3.0807C53.8168 2.87191 53.9585 2.71304 54.0622 2.51332C53.4814 2.31965 53.0626 2.66462 52.8059 3.54823C52.7414 3.76951 52.6855 4.00101 52.5072 3.68214C52.2059 3.14425 51.8734 3.19872 51.5462 3.63107C51.6486 3.82398 51.749 4.01122 51.8475 4.19619C51.6918 4.57407 51.4584 4.48896 51.2715 4.43109C51.064 4.36641 50.8731 4.14626 50.6749 3.9942C50.335 5.43991 50.9482 6.41922 51.1843 7.55286C50.8418 7.68109 50.5412 7.88989 50.2825 7.41555C50.2386 6.65639 50.4441 5.8053 49.9765 5.19252C49.936 5.13919 50.0284 4.71705 50.1002 4.50712C50.1694 4.30399 50.3423 4.14172 50.1302 3.94087C50.049 3.86484 49.894 3.84327 49.8289 3.92498C49.6253 4.18257 49.477 4.56272 49.1644 4.45719C48.8485 4.34939 48.6882 4.56159 48.6915 5.16416C48.6929 5.42629 48.5199 5.49324 48.3523 5.54544C48.0171 5.64871 47.8036 5.29579 47.5536 5.06543C47.1399 5.9063 46.5772 5.37749 46.0897 5.5375C46.0112 5.5636 45.9487 5.72587 45.8848 5.81552C45.9773 6.00049 46.069 6.18432 46.1608 6.36929C45.5749 6.26035 44.9424 7.14434 44.4256 6.06063C44.3251 6.42035 44.2274 6.77213 44.1356 7.10008C43.9952 6.94122 43.801 6.66433 43.7764 6.70291C43.404 7.28732 42.8027 7.33385 42.544 8.40054C42.3405 7.45187 41.9155 7.57669 41.6002 7.7435C41.39 7.85471 41.1559 8.10096 40.9557 8.30749C40.6059 8.66721 40.3465 9.28113 40.0492 9.78837C39.5603 9.74298 39.3854 10.509 39.0642 10.897C38.7562 10.2377 38.3984 10.1333 37.9794 10.6054C38.2833 10.9538 38.8267 10.9742 38.6013 11.991H39.7193C39.8144 11.6415 39.9128 11.2795 40.0113 10.9175C40.137 11.1047 40.2454 11.2659 40.3505 11.4225C40.5952 11.1115 40.717 10.5929 41.0322 10.4726C41.2351 10.8732 41.0575 11.3317 41.14 11.7209C40.6445 12.1907 40.002 12.3337 40.0073 13.6171C39.9095 13.2574 39.8117 12.8988 39.6694 12.3757C39.6135 12.7819 39.5969 13.0327 39.5437 13.2597C39.4679 13.5808 39.1799 13.7487 39.0449 13.5502C38.7695 13.1439 38.4696 12.7422 38.6013 11.9921H37.4952C37.4566 11.9263 37.4141 11.8696 37.3828 11.7981C37.2444 11.4792 37.0596 11.351 36.8447 11.4962C36.6419 11.6335 36.6691 12.0659 36.9039 12.5981C36.9352 12.6696 36.9777 12.7263 37.0356 12.825C36.8341 13.0883 36.6512 13.3992 36.4317 13.5887C36.306 13.6977 36.1218 13.6182 35.9641 13.6024C35.9209 13.5978 35.857 13.5354 35.8424 13.473C35.7699 13.1666 35.7101 12.8511 35.6389 12.505C35.3935 12.8965 35.1753 13.2438 34.9705 13.5706C34.7989 13.4775 34.7856 12.9238 34.4889 13.3107C34.2109 13.6738 34.2415 14.2401 34.0387 14.6702C33.8178 14.3173 33.6003 13.9689 33.3829 13.6216C32.9732 14.3207 32.5654 15.0208 32.1524 15.7119C32.1232 15.7607 32.0573 15.7482 32.1025 15.7335C31.8079 15.7686 31.6084 15.7925 31.4501 15.8118C31.1714 16.5187 31.5498 17.3312 31.1734 17.9315C31.0716 17.5593 30.9732 17.2007 30.8714 16.8297C30.7796 16.9863 30.7078 17.1179 30.63 17.237C30.6007 17.2824 30.5568 17.2995 30.5196 17.329C30.0267 16.6107 30.0181 16.6084 29.4721 17.6751C29.5625 17.86 29.6523 18.0427 29.7447 18.2322C29.502 18.6419 29.1408 18.2391 28.9978 18.4887C28.765 18.8972 28.4611 18.9313 28.2117 19.2025C28.0068 19.426 27.7568 19.5406 27.5712 19.796C27.4242 19.998 27.1768 20.1818 27.242 20.621C27.2765 20.8547 27.3896 21.0533 27.4628 21.2712C27.5978 21.6718 27.5845 22.0996 27.4116 22.1722C27.2825 22.2267 27.1209 22.1495 26.9899 22.061C26.9001 22.0008 26.8382 21.8193 26.7638 21.6933C26.4112 21.7557 26.0395 21.5015 25.7069 21.8658C25.6464 22.1711 25.5872 22.4672 25.508 22.8644C25.3763 22.4026 25.2786 22.0621 25.1688 21.6774C24.7033 22.625 24.1612 23.2105 23.4722 23.2934C23.2912 23.3149 23.1383 23.4193 23.1409 23.686C23.1476 24.3101 22.9614 24.3612 22.6587 24.4156C22.4672 24.4497 22.5869 24.7368 22.6694 24.9615C22.8968 25.5788 22.8822 25.8716 22.5989 25.9669C22.3754 26.0418 22.2397 26.2245 22.0734 26.4299C21.9278 26.6092 21.7276 26.658 21.5447 26.7692C21.6637 27.0029 21.7582 27.189 21.852 27.374C21.4618 28.0095 21.0782 28.0859 20.7013 27.6032C20.6661 27.8801 20.6554 28.1366 20.6002 28.3624C20.5344 28.6325 20.4286 28.7233 20.2903 28.4373C20.2424 28.3386 20.1493 28.3045 20.0708 28.2353C19.8833 28.8322 20.0269 29.4677 19.9591 30.0634C19.8108 30.3176 19.6618 30.5707 19.5101 30.8294C19.292 30.4822 19.0738 30.1361 18.8444 29.7707C18.6262 30.6535 18.0509 30.0169 17.8002 30.4981C17.9432 30.9815 18.0635 31.4411 18.2132 31.87C18.2844 32.0743 18.4599 32.2683 18.2411 32.4238C18.1307 32.5021 17.9545 32.3716 17.8221 32.2785C17.7343 32.2172 17.6711 32.0561 17.5966 31.9404C17.2741 32.813 16.6815 32.1548 16.3336 32.5588C16.0802 32.8539 15.7563 32.8754 15.5574 33.2794C15.5315 33.3316 15.5707 33.4666 15.5514 33.5415C15.4204 34.0533 15.4184 34.051 15.0167 33.4507C14.7527 33.9671 14.4906 34.5061 14.2113 35.0167C13.8647 35.6499 13.8581 35.6397 14.2864 36.5112C14.2026 36.5986 14.1241 36.711 14.0337 36.7688C13.6167 37.0366 13.5462 37.3226 13.7956 37.8094C13.8993 38.0114 14.0164 38.1941 14.1295 38.3825C14.3456 38.7433 14.3782 39.0963 14.1215 39.4469C13.7084 38.7422 13.2987 38.0432 12.8478 37.2738C12.6915 37.8991 12.4614 38.4744 12.4188 39.0883C12.3749 39.7204 12.3084 39.9576 11.91 40.0869C11.6333 40.1766 11.7776 40.8688 11.7836 41.2841C11.7856 41.401 12.0118 41.5077 12.1335 41.6223C12.2193 41.7028 12.3031 41.7902 12.6702 42.1568C11.769 41.906 11.2994 42.5675 10.7973 43.043C10.4721 43.3505 10.51 42.7298 10.3364 42.7196C10.2905 42.8456 10.192 42.9908 10.1954 43.1304C10.2087 43.7988 9.95992 43.801 9.6839 43.7795C9.58214 43.7715 9.47905 43.7999 9.37729 43.8124C9.22831 44.0666 9.07932 44.3208 8.93101 44.5738C8.87913 45.173 9.02811 45.8085 8.82658 46.3724C8.46344 46.7322 7.99188 46.0683 7.66797 46.7696C7.88347 46.9512 8.09564 47.1282 8.29384 47.2939C8.29384 47.8034 8.30115 48.2528 8.29118 48.701C8.28452 49.0029 8.18742 49.1515 7.99853 49.1708C7.80964 49.1901 7.7152 49.0426 7.66332 48.7691C7.61942 48.5387 7.58218 48.305 7.53495 48.0326C7.46246 48.1563 7.39728 48.2142 7.39196 48.2845C7.35272 48.8508 7.28155 49.3206 6.83793 49.1674C6.45283 49.0346 6.32314 49.6599 6.0837 49.9674C6.29055 50.3396 6.60647 50.6823 6.2686 51.2611C6.0531 51.631 6.01054 51.9453 6.22137 52.3868C6.37102 52.6988 6.44685 53.113 6.5506 53.4648C6.81132 53.5669 7.09133 53.281 7.31946 53.6952C7.08468 53.9448 6.86719 54.2728 6.61578 54.4021C6.49407 54.4645 6.31183 54.0628 6.14688 54.0322C5.90412 53.9879 5.63608 53.8835 5.42791 54.3068C5.16985 54.8311 4.78941 55.1987 4.75083 55.992C4.74751 56.0623 4.57857 56.1032 4.48878 56.1667C4.39899 56.2303 4.23405 56.3131 4.23671 56.3732C4.24868 56.6785 4.39234 56.7035 4.54598 56.7103C4.74418 56.7193 4.96899 56.582 5.1193 56.9463C4.96233 57.2243 4.85791 57.6147 4.60052 57.676L4.37039 57.2833C4.30987 57.3923 4.19215 57.5103 4.19747 57.609C4.23272 58.2808 4.02853 59.0184 4.43823 59.6062C4.54864 59.764 4.49876 60.2712 4.50009 60.6184C4.50142 60.9316 4.21276 61.1597 4.01922 60.9793C3.89684 60.8658 3.80306 60.6638 3.69531 60.5004C3.3734 61.1189 3.73123 61.9257 3.45787 62.526C3.04218 62.1538 3.03952 62.1504 2.79011 62.5941C2.73091 62.6996 2.69433 62.8403 2.64778 62.9629C2.69034 63.0355 2.72094 63.1308 2.7655 63.1558C2.90451 63.2352 3.17254 63.2886 3.17254 63.3521C3.17254 63.8979 2.90983 63.6721 2.74289 63.6971C2.53604 63.7277 2.3272 63.7039 2.13432 63.7039C1.88823 64.0841 2.01925 64.7978 1.67273 65.0327L1.46655 66.3332C1.89022 66.8813 1.23044 67.0719 1.32688 67.5985C1.41733 68.0887 1.40337 68.689 1.33154 69.1973C1.24707 69.7965 1.55767 70.0768 1.60955 70.5943C1.31092 70.6726 1.0216 70.7486 0.702349 70.8326C0.929149 71.4045 1.28498 71.8437 0.819407 72.4315C0.754227 72.5132 0.696363 72.7708 0.723632 72.8831C0.856653 73.4176 0.997655 73.9555 1.18521 74.4366C1.2464 74.5932 1.45724 74.5785 1.59957 74.642C1.49183 74.8962 1.41068 75.3093 1.27234 75.3751C0.746246 75.627 0.429657 76.2818 0 77.1147C0.248749 77.3712 0.504813 77.6356 0.760878 77.9C0.587286 78.1961 0.512795 78.3232 0.361151 78.582C0.6099 78.8736 0.859313 79.1652 1.1187 79.4694C0.996325 79.6623 0.963069 79.7531 0.918508 79.7757C0.823398 79.8234 0.716981 79.8109 0.625197 79.8688C0.440298 79.9868 0.331221 80.4498 0.416355 80.7017C0.510134 80.9809 0.728288 81.0308 0.953093 80.7936C1.04022 80.7017 1.10407 80.5451 1.17723 80.4203C1.40536 80.637 1.30028 81.0297 1.35482 81.3395C1.42332 81.7321 1.6162 82.0816 1.64214 82.4708C1.66076 82.7523 1.49515 83.07 1.39472 83.4354C1.51976 83.87 1.95474 84.0573 1.98334 84.7586C1.86229 85.3906 1.52242 85.6993 1.28431 86.1521C1.14398 86.4176 0.978367 86.6389 1.03224 87.0326C1.26237 87.4003 1.4885 87.7612 1.72328 88.1368C1.46788 88.5033 1.26968 88.711 1.57962 89.1967C1.76319 89.4849 1.63416 90.3201 2.13299 90.1124C2.14828 90.1068 2.24472 90.4234 2.2241 90.4585C2.07645 90.7173 1.92481 90.9567 2.02391 91.6693C2.268 91.9973 2.63647 92.4921 2.87857 92.8177C2.99895 93.6257 2.69167 94.4654 3.37074 94.4359C3.56562 94.428 3.62415 94.8989 3.50642 95.2882C3.4479 95.4811 3.3468 95.6354 3.1885 95.9667C3.54966 96.0031 3.79907 96.028 4.05114 96.0541C4.27262 96.4116 4.15024 97.1163 4.49477 97.3546C4.43491 97.8754 4.61249 98.2397 4.8353 98.4474C5.16054 98.7504 5.04614 99.4131 5.28158 99.7773C5.39266 99.6048 5.50306 99.4335 5.61281 99.2644C5.75913 99.8931 5.83096 100.681 6.43155 100.347C6.49673 100.311 6.67697 100.481 6.67764 100.559C6.68894 101.658 7.23965 101.826 7.64071 102.233C7.54826 102.417 7.45448 102.602 7.33143 102.846C7.658 102.972 8.02846 102.932 8.21136 103.229C8.45147 103.62 8.83257 103.41 9.00284 103.945C9.03609 104.05 9.17975 104.089 9.2742 104.095C9.58214 104.113 9.94529 103.976 9.87279 104.858C9.87146 104.877 10.8884 105.718 10.9064 105.718C11.2662 105.718 11.626 105.718 11.9226 105.718C12.1714 106.142 12.3576 106.459 12.5432 106.777C13.0533 106.415 13.3539 107.402 13.8288 107.346C14.3004 107.291 14.7753 107.324 15.2488 107.343C15.3386 107.346 15.4264 107.469 15.5155 107.538C15.5528 107.781 15.5488 108.17 15.6346 108.24C15.8993 108.458 16.16 108.674 16.4181 108.92C16.5671 109.062 16.8976 109.034 17.0054 108.846C17.3459 108.255 17.6113 108.262 17.8939 108.904C18.1746 108.884 18.3396 109.244 18.5564 109.437C18.7632 109.62 19.0685 109.486 19.3306 109.489C19.6465 109.491 19.9664 109.434 20.2757 109.51C20.4546 109.555 20.6162 109.812 20.7858 109.974C20.8776 109.838 20.9867 109.676 21.0851 109.531C21.2507 109.652 21.3026 110.225 21.5587 109.759C21.8061 109.306 22.1173 109.429 22.408 109.615C22.5437 109.702 22.6547 109.999 22.7818 110.008C23.3591 110.053 23.9397 110.057 24.517 110.004C24.6387 109.993 24.7512 109.682 24.8689 109.507C24.9733 109.668 25.0844 109.838 25.1828 109.991C25.3032 109.838 25.506 109.543 25.5193 109.567C25.929 110.281 26.3121 110.293 26.7325 109.577C26.7983 109.465 27.0198 109.535 27.1469 109.622C27.8279 110.08 28.1525 110.155 28.7444 109.863C28.8329 109.82 28.8954 109.62 28.9672 109.498C29.0776 109.669 29.1881 109.841 29.2812 109.984C29.5259 109.631 29.7388 109.218 30.0048 108.974C30.2156 108.781 30.3679 109.181 30.5169 109.42C30.5309 109.441 30.6027 109.404 30.6233 109.359C30.763 109.062 30.8821 108.869 31.0769 109.294C31.2732 109.719 31.6104 109.568 31.8026 109.437C31.9689 109.322 32.0294 108.759 32.1311 108.412C32.8415 108.412 33.5259 108.42 34.2096 108.402C34.2974 108.399 34.3838 108.262 34.471 108.188C34.4796 108.104 34.4982 108.02 34.4956 107.938C34.4869 107.674 34.5122 107.428 34.6938 107.422C34.7317 107.421 34.8102 107.706 34.8049 107.854C34.7942 108.185 34.8907 108.393 35.0523 108.397C35.3868 108.407 35.8165 108.657 35.7939 107.582C35.7885 107.338 36.0685 107.076 36.2375 106.788C36.3406 107.164 36.4397 107.524 36.5534 107.939C36.7922 107.709 37.0808 108.102 37.293 107.69C37.436 106.77 37.452 106.745 37.8437 106.795C37.9461 106.807 38.0938 106.752 38.1423 106.845C38.3366 107.218 38.4882 107.402 38.7216 106.899C38.7749 106.785 39.0675 106.793 39.1234 106.914C39.4553 107.636 39.9241 107.413 40.2846 107.271C40.5294 107.175 40.8373 106.903 41.0522 106.593C41.1632 106.433 41.0941 105.93 41.1333 105.592C41.1506 105.446 41.2364 105.322 41.4047 104.909C41.5902 105.427 41.7552 105.89 41.8875 106.26C42.4316 106.232 42.8652 106.326 43.2856 105.752C43.6195 105.296 44.0737 105.025 44.5606 105.162C44.7501 105.215 45.0321 105.208 45.1426 105.014C45.5024 104.383 45.93 104.741 46.3244 104.638C46.5426 104.287 46.7614 103.934 46.9616 103.613C47.1013 103.766 47.2868 104.044 47.3214 103.998C47.8588 103.268 48.4561 102.923 49.1425 103.017C49.1811 103.023 49.2396 102.942 49.2622 102.875C49.5342 102.084 50.2346 102.905 50.4587 101.946C50.7221 101.946 50.9881 101.989 51.2462 101.928C51.3799 101.896 51.4976 101.677 51.624 101.544C51.8568 101.301 51.9173 102.064 52.059 101.838C52.2691 101.502 52.476 101.327 52.7493 101.41C53.0912 101.514 53.2069 100.662 53.5661 100.868C53.7197 100.389 53.8734 99.9101 54.0283 99.4278C53.725 99.1055 53.4071 99.2882 53.1038 99.2587C52.7892 99.2281 52.4693 99.2996 52.1581 99.2394C51.8135 99.1725 51.6027 99.5447 51.3307 99.7512C51.0673 99.9521 50.7068 99.7501 50.4128 99.8795C50.2426 99.9544 50.1435 100.374 49.8934 100.34C49.6899 100.312 49.6413 99.699 49.4311 99.9351C49.2575 100.13 49.1292 100.369 48.8924 100.339C48.5332 100.294 48.1521 100.205 47.918 100.867C47.5489 100.815 47.1897 100.811 46.9443 101.408C46.4927 101.438 46.1648 102.216 45.6514 101.965C45.3161 101.801 45.1958 102.182 45.223 102.733C45.2257 102.788 45.0301 102.927 45.0275 102.92C44.818 102.344 44.4814 102.461 44.1801 102.504C44.0465 102.522 43.9114 102.724 44.107 103.001C44.1688 103.089 44.1948 103.249 44.2373 103.376C44.1476 103.438 44.0391 103.589 43.9706 103.547C43.7425 103.41 43.5377 103.128 43.3062 103.045C43.0574 102.955 42.7881 103.025 42.4023 103.025C42.2686 103.36 42.0931 103.801 41.9733 104.102C41.2031 104.102 40.5693 104.162 39.9408 104.083C39.4267 104.018 39.6495 104.859 39.3788 105.179H38.0193C37.5457 105.179 37.0702 105.228 36.5993 105.165C36.1224 105.102 35.8404 105.896 35.3043 105.77C34.5115 105.584 34.4962 105.724 33.4846 106.653C33.2718 106.848 33.1075 106.871 32.9432 106.564C32.8381 106.369 32.7563 106.231 32.6 106.505C32.5076 106.669 32.328 106.804 32.203 106.773C31.9649 106.713 31.8139 106.002 31.5545 106.286C31.3004 106.566 30.9931 106.676 30.7803 106.989C30.5675 107.302 30.4996 107.226 30.3094 106.966C30.1737 106.782 29.925 106.819 29.7255 106.8C29.4634 106.777 29.198 106.825 28.9366 106.786C28.6972 106.749 28.5655 106.976 28.4019 107.208C28.223 107.462 28.0993 106.48 27.8459 107.09C27.6603 107.537 27.3291 107.161 27.1269 107.359C26.8642 107.615 26.6653 108.059 26.4312 108.407C26.3334 108.553 26.0468 108.27 25.9749 107.958C25.9397 107.802 25.9537 107.573 25.8925 107.485C25.6191 107.089 25.1382 107.666 24.9281 106.906C24.9194 106.874 24.8323 106.858 24.8236 106.881C24.5716 107.557 24.1632 107.391 23.828 107.31C23.1316 107.143 22.3634 107.872 21.7283 106.853C21.7176 106.836 21.5952 107.066 21.5114 107.125C21.3764 107.219 21.141 107.392 21.1031 107.313C20.8769 106.844 20.6016 106.78 20.2723 106.781C19.7735 106.783 19.2308 107.034 18.8244 106.256C18.5085 106.256 18.1852 106.182 17.8793 106.275C17.5148 106.385 17.4084 105.618 17.0606 105.71C16.3795 105.888 15.7756 105.516 15.2122 104.878C15.0952 104.745 14.9309 104.631 14.7985 104.658C14.4933 104.72 14.3429 104.37 14.1281 104.134C13.9286 103.914 13.5761 104.348 13.4052 103.907C13.2336 103.462 12.8983 103.73 12.746 103.345C12.5605 102.879 12.2146 102.929 11.9599 102.643C11.6992 102.351 11.2609 102.534 10.9017 102.481C10.6603 102.446 10.3803 102.666 10.1934 102.208C10.2319 102.142 10.2745 102.084 10.3058 102.014C10.5911 101.365 10.5731 101.154 10.216 100.87C9.99517 100.694 9.78633 100.424 9.55554 100.35C9.08132 100.199 8.97025 99.0772 8.41289 99.1725C8.34638 99.1838 8.26125 98.9433 8.19141 98.8094C7.95929 98.3634 7.59747 98.0581 7.63272 97.3194C7.31746 97.0539 7.42787 96.1018 7.18378 96.0802C6.69892 96.036 6.71289 95.6263 6.70557 95.0533C6.70291 94.824 6.59184 94.6016 6.53663 94.3712C6.20807 93.0175 5.80103 91.7545 5.13659 90.9227C5.13659 90.4234 5.12262 90.0625 5.13992 89.705C5.16985 89.0707 4.95568 88.9731 4.65772 89.0026C4.62313 89.006 4.58389 88.8846 4.54199 88.8131C4.58988 88.6906 4.64175 88.568 4.68698 88.4398C4.9324 87.7476 4.87454 87.4922 4.44355 87.4083C4.24469 87.3697 4.02188 87.5024 3.91413 87.229C4.00991 86.564 4.5247 86.4732 4.50541 85.697C4.34512 85.1342 3.93808 84.6564 4.45087 83.9347C4.68166 83.6102 4.40165 83.1551 4.19747 82.8487C4.30189 82.6581 4.42693 82.4958 4.49942 82.2813C4.59653 81.9931 4.44289 81.5108 4.25467 81.4859C4.05447 81.4586 3.85228 81.4802 3.67869 81.4802C3.46785 80.7846 3.60353 80.1525 3.55631 79.5488C3.46984 78.4515 3.80772 77.2338 3.24238 76.2704C3.24238 75.6418 3.23307 75.0131 3.24903 74.3856C3.25302 74.238 3.34148 74.0962 3.39136 73.9521C3.62215 73.7331 3.99261 74.3073 4.15823 73.6162C3.94606 73.2542 3.75983 72.9364 3.57426 72.6198C3.64477 72.5211 3.70662 72.3906 3.7871 72.3316C3.87622 72.2669 4.00126 72.3169 4.07708 72.2318C4.53733 71.7109 4.6085 71.1934 4.36973 70.2118C4.33647 70.0757 4.27728 69.9565 4.23006 69.8294C4.66171 69.4697 4.37372 68.6617 4.57192 68.1897C4.9477 67.2955 5.18448 66.2832 5.43456 65.2937C5.57024 64.757 5.86288 64.5346 6.00721 64.0806C6.0684 63.8866 6.08636 63.553 6.0285 63.3703C5.92407 63.0423 5.55827 62.7609 6.10698 62.6168C6.5925 62.4897 6.61778 61.6749 6.83593 61.1291C6.98957 60.7444 6.97028 60.6411 6.80933 60.3302C6.6364 59.9977 6.6936 59.4508 6.85455 59.4564C7.23433 59.47 7.52697 59.0638 7.58683 58.6519C7.68394 57.9835 7.95397 57.6362 8.16813 57.1642C8.25127 56.9803 8.29051 56.6887 8.28586 56.4504C8.27854 56.0657 8.33906 55.7911 8.50334 55.5142C8.67694 55.2203 8.90972 55.0115 8.94165 54.4759C8.96493 54.0867 9.17643 53.7406 9.2323 53.3457C9.32874 52.6614 9.82224 53.1221 9.94728 52.5479C9.99783 52.3164 10.1854 52.1042 10.1708 51.9147C10.1468 51.6015 10.0098 51.3144 9.90937 50.9796C10.3038 50.082 11.1664 49.9674 11.4511 48.7169C11.4271 48.5546 11.4218 48.3731 11.3739 48.2346C11.3221 48.0848 11.2097 47.9952 11.1598 47.8443C11.054 47.5254 11.1791 47.0125 11.3566 47.0091C11.7717 46.9988 12.186 47.0057 12.5811 47.0057C12.8904 45.7926 12.8678 45.6802 13.3107 45.4204C13.7776 45.1469 13.9539 44.727 13.9904 43.91C14.0257 43.1224 14.2824 42.8376 14.8059 42.6901C14.9482 42.6504 15.2069 42.5131 15.2036 42.4609C15.155 41.7131 15.4962 41.755 15.745 41.494C15.9631 41.2648 16.2604 41.224 16.3921 40.9414C16.5657 40.5681 16.7174 40.062 16.7879 39.6251C16.8757 39.0792 16.9807 38.9896 17.2767 38.8806C17.4862 38.8024 17.6359 38.3053 17.9372 38.3348C17.9777 38.3382 18.0908 37.8786 18.0669 37.6676C18.0369 37.4032 17.8999 37.1739 17.7543 36.7824H19.4975C19.8507 36.1799 20.1486 35.6715 20.4459 35.1643C20.8423 35.3254 20.9627 34.6854 21.2115 34.4108C21.4995 34.0942 21.4622 33.4326 21.6684 33.1285C22.0129 32.6189 21.6338 32.4601 21.5793 32.1571C21.844 31.9233 22.1047 31.693 22.3774 31.4513C22.4506 31.5647 22.561 31.7361 22.6714 31.9074C23.0192 31.3151 22.6394 30.5015 22.956 29.7707C23.1536 29.7707 23.4076 29.7956 23.6597 29.7639C23.9065 29.7332 24.1612 29.9 24.396 29.5324C24.5643 29.268 24.8123 29.1522 25.0218 28.9718C24.9174 28.7664 24.8223 28.5814 24.6846 28.3125C25.0179 27.9596 25.4382 28.384 25.7182 27.8188C25.9803 27.29 26.5835 27.98 26.7937 27.0778C27.2506 27.3865 27.5399 26.6296 27.927 26.5604C28.1944 26.5116 28.4338 26.5025 28.6074 26.0917C28.8874 25.4301 29.349 25.2361 29.7521 24.9615C29.9928 24.7969 30.066 24.6539 30.0853 24.2625C30.0986 23.9822 30.205 23.8119 30.4019 23.8403C30.6599 23.8789 30.9306 23.9311 31.0962 23.4568C31.5924 23.3263 31.8425 22.6091 32.199 22.137C32.6313 21.5662 33.0962 21.0386 33.7227 21.1577C34.048 20.4053 34.5947 19.9492 34.8142 18.9664C34.3153 18.9358 33.8172 18.9358 33.3363 18.9358C33.1946 18.4944 33.3888 18.4717 33.5052 18.4694C33.8079 18.4615 34.0613 18.424 34.3187 18.0121C34.5588 17.6285 34.7909 17.9792 34.8135 18.7372C34.8162 18.8235 34.8135 18.9108 34.8135 18.9664C35.4094 19.3829 35.4214 18.4569 35.6209 17.9508C35.8504 18.2549 35.9827 18.7565 36.2887 18.9063C36.3645 18.5942 36.3991 18.0915 36.5215 18.0189C36.8594 17.8192 37.2385 17.7727 37.4859 18.4456C37.7094 18.0859 37.9308 17.7295 38.1862 17.3176C38.7609 17.7488 39.2404 17.0827 39.7339 16.7309C39.9468 16.5789 40.2361 16.4438 40.3778 16.1783C40.6398 15.6869 40.9737 15.9309 41.2231 15.7244C41.4832 15.5088 41.7558 15.3023 42.0053 15.0469C42.2227 14.8234 42.3631 14.3683 42.5852 14.1732C42.7961 13.9882 43.102 14.3263 43.3255 13.9076C43.2264 13.717 43.1293 13.5309 43.0295 13.338C43.243 12.934 43.4565 12.9714 43.6654 13.3618C43.827 13.6648 44.0245 13.7442 44.1988 13.4662C44.3591 13.2109 44.5513 13.1632 44.7235 13.0225C44.8965 12.8806 44.961 12.353 45.0827 11.9637C45.1878 12.3439 45.2862 12.6991 45.4525 13.3005C45.521 12.5561 45.5669 12.0625 45.6095 11.5983C46.0431 11.2 46.3677 11.6471 46.7594 11.9252C46.782 11.4758 46.7867 11.0446 46.8346 10.6281C46.8465 10.5214 46.9902 10.4102 47.08 10.3921C47.1698 10.3728 47.2676 10.467 47.362 10.5112C47.3407 10.6383 47.342 10.804 47.2942 10.8857C47.0733 11.2602 47.0467 11.6154 47.2855 11.991C47.4744 11.6687 47.6413 11.3078 47.8522 11.0502C48.0032 10.8653 48.2127 10.8187 48.4082 10.7041C48.2832 10.4692 48.1834 10.2809 48.0816 10.0902C48.1734 10.0028 48.2532 9.88369 48.345 9.84852C48.5978 9.75206 48.7388 10.3671 48.8412 10.3115C49.06 10.1924 49.1944 9.75319 49.5036 9.82468C49.8122 9.89618 50.1315 9.84057 50.327 9.84057C50.5991 10.0766 50.768 10.3206 50.9502 10.3535C51.1298 10.3853 51.5448 9.6817 51.8647 9.04623C51.9126 8.95204 52.047 8.84424 52.0756 8.88282C52.5777 9.56369 53.1298 9.3617 53.6765 9.15176C53.763 9.11885 53.8268 8.91119 53.9013 8.78409C54.013 8.95318 54.1241 9.12226 54.289 9.37077C54.3476 8.81587 54.3988 8.32337 54.45 7.83542C54.75 7.5574 55.0659 7.72875 55.3698 7.68903C55.6745 7.64932 55.6379 7.28165 55.6592 6.931C55.6645 6.83795 55.7802 6.75057 55.8547 6.69497C55.8727 6.68135 55.9565 6.80845 55.9585 6.87426C55.9658 7.22151 55.9199 7.66634 56.2125 7.67428C57.2561 7.70379 58.2996 7.68563 59.3206 7.68563C59.5932 6.36135 59.6504 6.33071 60.2198 7.13186C60.6754 7.14094 61.137 7.18406 61.5533 7.11597C61.6092 6.90263 61.6311 6.82887 61.6484 6.75057C61.6996 6.52135 61.6059 5.87453 61.9091 6.30007C62.1539 6.6439 62.4672 6.59738 62.7073 6.99228C62.8955 7.30208 63.2799 7.3452 63.5433 6.88221C63.2467 6.54291 63.1748 6.04361 63.232 5.49324C63.3192 4.65804 64.0328 4.14966 64.4226 4.64556C64.4359 4.66258 64.3015 5.01777 64.2317 5.2277C64.4339 5.63282 64.4325 5.60899 65.0551 5.53863C65.4654 5.49324 65.8791 5.52955 66.2476 5.52955C66.4438 5.06316 66.3128 4.25633 66.8169 4.45265C67.0451 3.61291 67.6091 4.18938 67.8984 3.72753C68.2256 3.2044 68.5289 3.26454 68.8748 3.56412V4.93266C68.4903 4.96897 68.1352 5.00188 67.78 5.03593C67.631 5.29012 67.4827 5.54431 67.3929 5.69637C67.4621 6.67568 68.0194 6.4544 68.3307 6.90944C68.622 7.33498 69.1255 7.39513 69.464 6.92987C69.8026 6.46347 69.8604 7.01838 70.05 7.10916C70.1691 6.72788 70.5043 6.62007 70.4896 6.06971H69.7035C69.5368 4.9372 69.6516 4.05737 70.048 3.43022C70.2256 3.8637 70.2083 4.53889 70.6945 4.57974C70.914 4.5979 70.7637 5.2016 70.8056 5.53182C71.0616 5.6226 71.1095 5.12671 71.3004 5.03025C71.5691 5.51518 71.7535 6.18886 71.8538 7.05129C72.455 6.5066 72.7357 6.44305 73.6455 6.59851C73.7307 6.61327 73.8265 6.49071 73.9143 6.41922C74.0207 6.33298 74.0792 5.90063 74.2488 6.28872C74.2588 6.46121 74.2681 6.63369 74.2781 6.80618C74.2934 7.0581 74.3087 7.31002 74.3253 7.5801C74.9252 7.13905 75.4812 7.34179 75.9934 8.18834C76.2681 7.82634 76.5341 7.25668 76.8653 8.06238C76.9451 8.25529 77.0083 8.236 77.0901 8.00791C77.3395 7.31229 77.9501 8.09528 78.1696 7.24988C78.1762 7.22378 78.264 7.21356 78.274 7.23966C78.5267 7.92166 78.9271 7.66634 79.2717 7.66974C79.5231 7.67201 79.6488 7.93301 79.7751 8.19288C79.8649 8.37784 79.9002 8.63884 79.9614 8.86353C80.1223 9.45134 80.2527 9.45475 80.6531 8.92821C80.6897 8.87942 80.7276 8.83289 80.8779 8.63998C81.0235 9.04509 81.1805 9.48085 81.3282 9.89164C81.9367 9.08027 81.9879 9.08708 82.1629 9.89958C82.2227 10.1776 82.2713 10.3909 82.4535 10.3716C82.6524 10.3501 82.9237 10.4012 83.0348 10.2071C83.3953 9.5773 83.8236 9.94951 84.2147 9.83944C84.4016 10.2309 84.7375 10.4375 84.7149 11.1036C84.7115 11.2091 84.933 11.3487 85.0567 11.4531C85.3534 11.7061 85.4046 11.949 85.2323 12.4222C85.1545 12.6355 84.959 12.7377 85.0155 13.0747C85.0421 13.2324 85.0886 13.3811 85.1266 13.5331C85.201 13.4571 85.2775 13.3879 85.3487 13.3039C85.3913 13.254 85.4239 13.1791 85.4724 13.0962C85.644 13.6829 85.7737 14.3173 86.0777 14.6168C86.2825 14.4444 86.4647 14.155 86.6317 14.1788C86.9456 14.2242 87.191 14.8756 87.225 15.4963C87.2383 15.7437 87.2655 15.9899 87.2888 16.2679C87.4957 16.0705 87.6539 15.9116 87.8162 15.7652C87.9892 15.6098 88.1661 15.4657 88.4002 15.2671C88.492 15.443 88.6489 15.6847 88.7587 15.9774C88.8511 16.2226 89.1458 16.2714 89.04 16.7253C88.9276 16.7673 88.8312 16.8013 88.7354 16.841C88.5725 16.9102 88.4501 17.0385 88.486 17.3789C88.9928 17.178 89.2848 17.9939 89.7244 18.1199C89.6805 18.4501 89.2535 18.6759 89.6446 19.0867C89.7464 20.0184 90.1873 20.5234 90.5352 21.1441C90.8371 21.0056 90.9781 21.4516 91.1936 21.6298C91.2482 21.6752 91.4244 21.1611 91.5308 21.177C91.9173 21.2349 92.192 20.8093 92.5125 20.6686C92.8285 20.5313 93.1417 20.3883 93.4423 20.1625C93.5973 20.79 93.6405 21.4028 93.2887 21.8193C92.9734 22.1926 92.9954 22.8814 92.7387 23.2877C92.4959 22.8043 92.5265 21.9736 92.0702 21.7659C91.8042 22.3776 91.193 22.213 91.0466 23.0959C91.2615 23.4942 91.5415 23.2094 91.8714 23.3376C91.9232 23.4431 92.0204 23.6531 92.1241 23.8528C92.1933 23.9867 92.2731 24.1059 92.3456 24.2341C92.5833 24.657 92.5697 25.1343 92.305 25.6662C92.4048 25.9828 92.5232 26.2631 92.5817 26.5751C92.6276 26.818 92.5391 27.1777 92.615 27.3525C92.8531 27.8971 93.2555 28.2433 93.2761 29.0444C93.2781 29.108 93.3479 29.2226 93.3838 29.2203C93.8979 29.1806 93.8893 29.3916 93.5827 30.0248C93.4696 30.2586 93.5421 30.8884 93.6439 31.2413C93.7051 31.4524 93.9871 31.4762 94.1853 31.5931C94.0908 31.7667 94.009 31.8791 93.9565 32.0232C93.9059 32.1605 93.8946 32.3387 93.8494 32.4828C93.7802 32.7041 93.6884 32.9049 93.6206 33.1285C93.4889 33.5608 93.8547 33.5824 93.8527 33.9194C93.8487 34.5458 93.8261 35.1779 93.8634 35.7986C93.88 36.0789 94.1101 36.5544 94.0915 36.5759C93.7024 37.0457 93.864 37.7277 93.8667 38.3099C93.868 38.6106 94.023 38.9102 94.1188 39.2472C93.9538 39.5479 93.7503 39.919 93.5621 40.2628C93.6532 40.4898 93.7317 40.6861 93.8101 40.8813C93.4776 41.2183 93.5162 41.7766 93.5408 42.2997C93.57 42.9295 93.4909 43.2609 93.0526 43.2972C92.8657 43.3131 92.8258 43.8657 92.9874 44.1619C93.1391 44.4399 93.2149 44.5557 93.03 44.9517C92.738 45.577 92.8817 46.2317 93.2022 46.7674C93.0539 47.0204 92.9089 47.2803 92.756 47.5254C92.5232 47.8999 92.5132 48.2777 92.7579 48.6307C92.9302 48.8792 92.8597 49.0448 92.7074 49.1515C92.5751 49.2446 92.4261 49.2673 92.2458 49.3354C92.3842 49.5964 92.4839 49.7836 92.583 49.9697C92.5059 50.0559 92.4254 50.2216 92.3423 50.225C91.6506 50.2579 91.7723 51.5311 91.3858 52.0214C91.4823 52.372 91.5787 52.7215 91.6805 53.0915C91.316 53.6509 90.9728 54.1786 90.6981 54.5996C90.8405 55.1012 90.9735 55.3894 91.0001 55.7037C91.0446 56.2325 91.0579 56.6717 90.5624 56.7534C90.1614 56.8203 90.0922 57.0291 89.8847 56.7375C89.632 57.5648 89.3393 58.3625 89.4198 59.3759C89.4358 59.5744 89.312 59.8479 89.213 60.017C89.1105 60.1918 89.0946 60.2814 89.328 60.4891C89.467 60.7592 89.8621 60.0953 90.057 60.859C89.904 60.9123 89.6938 60.8772 89.6306 61.0247C89.2549 61.8996 88.5651 62.0346 88.1787 62.8698C88.1302 62.9742 88.0364 63.0174 87.9659 63.0877C87.8847 62.9493 87.8109 62.8233 87.7038 62.6406C87.5994 62.9969 87.5316 63.3748 87.3939 63.6517C87.2709 63.8991 87.1432 64.1397 86.9197 64.2747C86.4674 64.5482 86.4814 64.6787 86.9336 65.6637C86.6969 65.9519 86.4501 66.2515 86.2759 66.4637C86.2759 67.3908 86.2759 68.1068 86.2759 68.8229C86.4248 69.0759 86.5732 69.329 86.7335 69.6036C86.8419 69.4413 86.9509 69.2768 87.0953 69.0601C87.1398 69.3097 87.1804 69.5367 87.2223 69.7636C87.2729 70.0371 87.3613 70.2379 87.5495 70.1619C87.642 70.1245 87.791 70.0575 87.8049 69.9577C87.9074 69.253 88.1827 68.7105 88.2851 68.1863C88.5798 68.58 88.8585 68.9522 89.1345 69.3199C88.9236 69.7682 88.6968 69.6308 88.5033 69.6172C88.0836 69.5877 88.2692 70.306 88.1082 70.5001C87.8349 70.828 87.5076 71.0459 87.187 71.2263C87.0221 71.3194 86.9057 71.0754 86.909 70.7645C86.9117 70.5012 86.8006 70.1324 86.7255 70.264C86.4907 70.6771 86.3344 70.6862 86.1515 70.2266C86.0876 70.3208 85.9826 70.3991 85.9666 70.5137C85.9094 70.9234 86.0617 71.4045 85.8209 71.7574C85.3813 71.5815 85.0501 72.0161 84.6962 72.3225C84.6025 72.0411 84.508 71.7608 84.4102 71.468C84.4867 71.3307 84.5891 71.148 84.6909 70.9653C84.6517 70.8984 84.6204 70.8246 84.5785 70.7804C84.5399 70.7395 84.4801 70.6885 84.4468 70.7123C84.1043 70.9551 83.7651 71.2127 83.3388 71.5293C83.6068 71.6791 83.7937 71.7472 83.9573 71.8913C84.0198 71.9458 84.0305 72.1727 84.0651 72.3214C83.8649 72.2363 83.807 72.5665 83.6813 72.7004C83.4199 72.9784 83.4086 72.3634 83.221 72.3112C82.653 72.1535 82.2407 72.6788 82.1695 73.6967C82.1522 73.943 82.1196 74.187 82.0924 74.4468C82.0106 74.3935 81.9667 74.3821 81.9367 74.3424C81.6767 73.9963 81.5616 73.9884 81.5423 74.3277C81.527 74.5944 81.557 74.8701 81.5343 75.1334C81.5104 75.4148 81.414 75.6213 81.2184 75.551C80.7695 75.3898 80.6444 75.8108 80.4948 76.4588C80.403 76.856 80.2766 76.0571 80.0704 76.1774C79.8909 76.6086 79.404 76.8753 79.7845 77.6809C79.8922 77.5164 79.9993 77.353 80.1057 77.1907C80.2673 77.6843 80.677 77.5992 80.8985 78.0441C80.3671 78.5173 79.8111 77.9567 79.3528 78.4299C79.3435 78.6535 79.3601 78.8452 79.3222 78.9973C79.2943 79.1085 79.1393 79.2447 79.136 79.2367C78.8294 78.5933 78.5394 78.6239 78.2541 79.273C77.8729 79.2572 77.698 79.517 77.7452 80.2183C77.8124 81.2158 77.6215 81.9091 76.9564 82.0703C76.8587 82.0941 76.8041 82.6433 76.7084 83.0382C76.3791 83.07 76.0253 83.104 75.6728 83.1381C75.6342 83.2039 75.5584 83.2902 75.5657 83.3276C75.7114 84.038 75.0921 84.2502 75.2052 84.9889C75.2398 85.217 74.8873 85.377 74.6931 85.124C74.5261 84.9061 74.3918 84.6031 74.1603 84.7188C73.9096 84.8448 73.9921 85.284 73.9216 85.5813C73.9036 85.6573 73.8398 85.7004 73.8145 85.7753C73.6788 86.1872 73.6815 86.1827 73.9768 86.3302C74.0692 86.3767 74.1544 86.4653 74.2428 86.5356C74.0466 87.0417 73.8657 87.5149 73.4181 87.4219C73.0097 87.3368 72.5907 87.4037 72.2176 87.4037C72.0353 87.7305 71.8977 87.9779 71.76 88.2253C71.8105 88.3115 71.8538 88.3683 71.8844 88.4409C71.9362 88.5623 71.9801 88.6928 72.0274 88.8199C71.9382 88.8869 71.8524 88.9799 71.7593 89.0151C71.5052 89.1116 71.4427 88.6406 71.2651 88.5044C71.0497 89.351 70.479 88.7405 70.1883 89.267C69.9429 89.7107 69.7041 90.1329 69.3157 90.2395C69.1601 90.2827 69.1934 90.9828 69.3649 91.1269C69.4501 91.1984 69.5764 91.1235 69.6649 91.1882C69.7301 91.2359 69.7747 91.397 69.8079 91.523C69.8152 91.5513 69.7274 91.7113 69.7048 91.6989C69.1049 91.3698 68.7052 92.5477 68.1006 92.3173C67.9835 92.273 67.7853 92.6634 67.6124 92.8325C67.2167 93.216 66.8934 93.8175 66.5356 94.3383C66.1066 93.7744 65.9842 93.7562 65.6889 94.2487C65.5765 94.4371 65.4741 94.647 65.3517 94.8149C65.1755 95.0578 65.0511 95.3551 65.1316 95.7262C65.1808 95.952 65.3258 96.1165 65.4275 96.3094C65.2785 96.5636 65.1296 96.8178 64.9812 97.072C64.3421 95.9191 63.814 96.9483 63.2526 97.3251C63.4123 97.6701 63.4302 97.9605 63.3291 98.2806C63.2832 98.4247 63.236 98.5904 63.2334 98.7481C63.2287 99.0738 63.1349 99.227 62.9593 99.2531C62.7019 99.2905 62.5915 99.0828 62.5889 98.6391C62.5882 98.4928 62.5011 98.3475 62.4492 98.1898H61.7907C61.4821 98.8582 61.1103 99.4482 60.5204 99.2951C60.4479 100.042 59.5986 99.3994 59.7336 100.599C59.7622 100.853 59.5274 100.805 59.4243 100.574C59.2747 100.238 59.1403 100.455 59.1363 100.685C59.129 101.1 59.0585 101.526 59.258 101.944C59.4569 102.361 59.564 102.906 59.709 103.387C59.6418 103.466 59.6012 103.556 59.56 103.557C59.143 103.567 58.7253 103.564 58.6169 103.564C58.0369 103.313 57.9724 102.671 57.6438 102.587C57.4523 102.914 57.2667 103.23 57.0758 103.556H56.4786C55.9984 104.1 55.7722 105.154 55.1291 105.262C54.9827 105.802 54.9202 106.433 54.5544 106.764C54.4507 106.608 54.3416 106.443 54.2312 106.276C53.9698 106.679 53.7031 107.034 53.7417 107.793C53.7822 108.592 53.596 108.229 53.33 108.029C53.1284 107.879 52.889 108.529 52.5505 108.437C52.2558 108.356 51.9406 108.484 51.6353 108.538C51.5947 108.545 51.5608 108.658 51.5229 108.721C51.2455 109.174 51.2382 108.465 51.0693 108.435C50.7381 108.883 50.486 109.388 50.5838 110.227C50.607 110.427 50.4381 110.646 50.2951 110.321C50.19 110.081 49.9612 110.055 49.9885 110.308C50.0923 111.278 49.7351 111.78 49.4052 112.343C49.3826 112.381 49.3886 112.466 49.3793 112.545C49.6007 112.908 49.8781 112.633 50.1222 112.729C50.1654 112.746 50.2359 112.872 50.2286 112.906C50.2007 113.034 50.1501 113.238 50.1002 113.245C49.8388 113.279 49.5741 113.243 49.3121 113.271C49.2223 113.281 49.1365 113.407 49.0494 113.481C48.8937 113.886 49.2456 114.539 48.8279 114.819C48.7893 114.753 48.7527 114.687 48.7142 114.626C48.5226 114.324 48.349 114.045 48.3763 113.507C48.3962 113.122 48.4501 112.845 48.6171 112.589C48.768 112.357 48.9263 112.095 49.0048 111.79C49.0494 111.615 48.9416 111.327 48.8977 111.064C48.7547 111.285 48.6443 111.456 48.5419 111.615C48.4242 111.446 48.3164 111.292 48.2619 111.214C47.8189 111.517 47.7185 112.072 47.7524 112.751C47.7644 112.988 47.7484 113.271 47.5243 113.138C47.2915 112.325 47.6107 111.379 47.3081 110.565C46.9417 111.038 47.3281 112.022 46.8545 112.387C46.8479 112.393 46.8585 112.523 46.8805 112.567C46.949 112.702 47.0275 112.824 47.1944 113.11C46.9563 113.438 46.7268 113.787 46.4761 114.085C46.3604 114.222 46.1914 114.357 46.0697 114.313C45.936 114.264 45.8296 114.004 45.7072 113.832C45.4977 114.165 45.2796 114.512 45.0554 114.87C44.9636 114.396 45.0319 113.931 45.2603 113.475C45.1033 113.398 44.935 113.21 44.8319 113.285C44.4123 113.588 44.2114 114.254 44.2892 114.964C44.3059 115.12 44.367 115.284 44.4355 115.394C44.5659 115.603 44.6098 115.8 44.4269 115.944C44.3424 116.011 44.1668 116.019 44.1269 115.931C43.7551 115.112 43.4359 115.352 43.1346 116.039C42.9597 116.438 42.7329 116.532 42.4549 116.51C42.3312 116.499 42.2035 116.641 42.0698 116.718C42.2254 117.214 42.6604 116.819 42.695 117.398C42.7189 117.807 42.8067 118.293 42.5573 118.638C42.4449 118.468 42.3332 118.299 42.2214 118.13C42.0006 118.489 41.7944 119.05 41.4632 118.402C41.3003 118.085 41.1054 118.128 40.9005 118.105C40.6558 118.077 40.3758 118.284 40.1815 117.835C40.3891 117.463 40.7236 117.139 40.3292 116.481C40.1722 116.807 39.9694 117.093 39.8796 117.459C39.8051 117.766 39.9049 118.185 39.8536 118.52C39.7938 118.915 39.6215 119.259 39.559 119.653C39.5085 119.971 39.549 120.329 39.549 120.765H41.2623C41.5038 121.177 41.69 121.495 41.8762 121.812C42.3697 121.34 42.4449 121.043 42.7721 119.943C42.8819 119.574 42.9916 119.202 43.094 118.821C43.122 118.717 43.2703 118.655 43.3601 118.665C43.4499 118.674 43.5683 118.759 43.6148 118.878C43.664 119.006 43.6614 119.216 43.6514 119.384C43.6088 120.089 43.8363 120.467 44.2201 120.743C44.264 120.235 44.3072 119.738 44.3597 119.13C44.53 119.374 44.6377 119.528 44.7555 119.697C44.8579 119.538 44.9683 119.367 45.0774 119.198C45.3155 119.811 45.6746 119.803 46.0384 119.679C46.0996 119.659 46.1628 119.409 46.1721 119.256C46.1814 119.103 46.1242 118.938 46.097 118.778C46.0225 118.82 45.9467 118.856 45.8742 118.907C45.7977 118.962 45.6846 119.117 45.6573 119.08C45.5044 118.872 45.3733 118.618 45.2377 118.387C45.4126 118.082 45.5596 117.826 45.7032 117.576H47.2782C47.3939 117.754 47.5037 117.924 47.6453 118.143C47.8721 117.218 48.4647 117.16 48.8485 116.59C48.9822 116.392 49.4265 116.437 49.5542 116.662C49.9406 117.339 50.1807 117.006 50.4487 116.497C50.9422 116.642 50.9296 116.091 50.9203 115.521C50.9176 115.359 50.9622 115.196 50.9855 115.032C51.4544 114.607 52.0111 115.172 52.466 114.71C52.4793 114.568 52.4833 114.482 52.4953 114.399C52.5731 113.844 52.599 113.793 52.7999 114.08C53.0473 114.433 53.2442 114.449 53.4563 114.048C53.5521 113.868 53.6459 113.685 53.7397 113.505C53.612 113.287 53.4876 113.112 53.3925 112.9C53.316 112.729 53.1185 112.675 53.1956 112.333C53.2475 112.103 53.5415 112.161 53.739 112.419C53.9259 112.662 54.015 113.12 54.2904 113.18C54.3449 112.921 54.6828 112.32 54.8211 112.185C54.9921 112.018 55.145 111.783 55.3259 111.662C55.5082 111.539 55.7436 111.805 55.9106 111.483C56.0842 110.666 55.8081 109.74 56.1101 108.949C56.2398 109.143 56.3495 109.306 56.4639 109.477C56.5522 109.005 56.4925 108.561 56.285 108.145C56.7692 107.796 56.8816 107.863 56.9195 108.464C56.9515 108.974 56.7972 109.532 57.0565 110.011C57.1676 109.844 57.2767 109.678 57.4476 109.422C57.5168 110.025 57.5793 110.57 57.6585 111.264C57.7655 110.945 57.8493 110.804 57.856 110.653C57.8746 110.207 57.8507 109.754 57.8713 109.308C57.876 109.201 57.9884 109.106 58.0515 109.006C58.0941 109.156 58.1407 109.303 58.1779 109.456C58.2152 109.609 58.2431 109.769 58.275 109.926C58.3482 109.869 58.4872 109.799 58.4845 109.755C58.4579 109.361 58.5524 109.096 58.716 108.827C58.8902 108.54 58.8556 108.2 58.6767 107.918C58.5643 107.741 58.4499 107.541 58.6521 107.359C58.7339 107.284 58.8976 107.265 58.9554 107.352C59.2906 107.861 59.6059 108.41 59.9943 109.056C60.0522 108.382 60.0947 107.889 60.1413 107.353C60.6654 107.928 60.6627 107.944 61.0645 107.532C61.3165 107.275 61.6039 107.173 61.8526 106.841C62.0162 106.623 62.3607 106.819 62.6228 106.79C62.7126 106.78 62.7984 106.655 62.9041 106.567C62.8037 106.376 62.6567 106.216 62.6241 106.004C62.5909 105.789 62.6274 105.381 62.7093 105.309C62.9254 105.118 63.1821 105.101 63.365 104.731C63.4183 104.623 63.6763 104.665 63.7694 104.791C63.9364 105.015 64.0714 105.275 64.3208 105.171C64.7232 104.688 64.9739 103.84 65.4395 103.51C65.6836 103.772 65.8712 103.592 66.0906 103.297C66.4418 102.825 66.5948 101.883 67.1807 101.918C67.228 101.92 67.3264 101.482 67.3244 101.25C67.3217 100.926 67.0477 100.758 66.8402 100.918C66.7956 100.952 66.7631 101.038 66.7278 101.104C66.6247 101.295 66.5077 101.493 66.3999 101.148C66.356 101.009 66.352 100.762 66.3959 100.627C66.4671 100.408 66.5921 100.241 66.7032 100.037C66.4917 99.8624 66.2902 99.6956 66.094 99.5333C66.2569 99.2326 66.3986 98.9716 66.5396 98.7118C66.8482 99.2383 67.1349 99.7671 67.4474 100.245C67.6217 100.51 67.6629 100.812 67.6716 101.172C67.6729 101.238 67.7674 101.361 67.774 101.354C67.8432 101.267 67.9496 101.17 67.9569 101.057C67.9815 100.702 67.9556 100.316 68.2655 100.339C68.5854 100.362 68.8176 99.8715 68.8455 99.5855C68.9233 98.7844 69.2871 98.4337 69.5532 97.8936C69.339 97.7222 69.1295 97.5543 68.9173 97.3852C69.1362 96.7327 69.6483 97.5225 69.8292 96.7872C69.6319 96.3522 69.592 95.9293 69.7095 95.5185C69.8172 95.6785 69.9256 95.8397 69.9343 95.8521C70.205 95.9633 70.3599 95.1645 70.463 95.7784C70.6153 96.6851 70.8495 97.1299 71.4035 97.1219C71.5332 97.1197 71.6975 97.2797 71.7892 97.4522C72.2322 98.2896 72.3732 96.9574 72.7217 97.0958C72.906 97.1685 73.0277 96.9392 73.007 96.6476C72.9918 96.4309 72.882 96.0598 72.8135 96.0587C72.5747 96.0564 72.4417 95.8385 72.2841 95.5991C72.1118 95.3369 72.014 95.0521 72.0792 94.6731C72.1358 94.3429 72.3785 94.3644 72.7264 94.7196C72.8095 94.8047 72.8973 94.9227 72.9871 94.9352C73.0769 94.9477 73.172 94.8479 73.2651 94.7968C73.2365 94.6697 73.2146 94.5369 73.1767 94.4178C73.1301 94.2691 73.0184 94.1193 73.029 93.9945C73.049 93.7653 73.1101 93.4283 73.2053 93.367C73.3143 93.2966 73.4952 93.4362 73.611 93.5701C73.6648 93.6325 73.617 93.9117 73.6555 94.0637C73.6855 94.1829 73.7739 94.2668 73.8451 94.3417C73.8557 94.3531 73.9295 94.2362 73.9508 94.1602C74.2042 93.2433 74.2195 93.2002 74.596 93.6359C74.7716 93.839 74.8381 93.7959 74.9086 93.5372C74.9698 93.3125 75.0296 92.854 75.0462 92.8597C75.6256 93.064 75.4314 91.9996 75.7047 91.7147C75.8716 92.0699 76.0565 92.2753 76.3578 92.2821C76.7456 92.2912 76.878 91.776 77.1147 91.4617C76.8194 90.8829 76.417 91.3596 76.0984 91.161C75.7972 90.9726 75.5311 90.6208 75.2498 90.3405C75.8544 90.4926 75.9515 89.3907 76.3798 89.0389C76.4463 89.3567 76.5115 89.6676 76.6019 90.1022C77.0901 90.1022 77.6076 90.1136 78.1244 90.0909C78.2102 90.0875 78.2933 89.9309 78.3837 89.8378V89.3102L79.4406 88.4863C79.8523 88.6247 79.8782 88.164 80.0259 87.6522C80.1875 87.0894 80.3837 86.5379 80.5247 85.9444C80.3418 85.8332 80.1589 85.7208 79.9294 85.5801C80.1775 85.1569 80.389 84.7812 80.6125 84.4261C80.6644 84.3432 80.7542 84.3307 80.8194 84.291C80.9071 84.4408 80.9816 84.5679 81.0561 84.695C81.4166 84.2672 81.6281 83.3639 82.2101 83.6385C82.7734 82.9849 83.5177 83.0337 84.0411 82.2757C83.9447 82.0714 83.797 81.8898 83.7644 81.6595C83.7159 81.3179 83.7471 81.0319 83.4538 80.9173C83.1292 80.7902 82.8306 80.46 82.5287 80.1922C82.4395 80.1128 82.3797 79.9426 82.3025 79.82C82.1216 79.5306 82.1203 79.2242 82.3092 78.7896C82.6484 79.2265 82.9131 79.8109 83.3561 80.0572C83.8941 80.3556 83.9533 80.4963 84.2327 79.8416C84.3637 79.5352 84.4395 79.1607 84.5459 78.7987C84.647 78.9712 84.7202 79.1006 84.796 79.2243C85.3414 80.1094 85.5795 80.0594 85.9579 78.9542C86.0045 78.8169 85.9546 78.5649 86.0105 78.4594C86.2805 77.9488 86.6184 77.5244 86.6743 76.7686C87.1591 76.2057 86.7188 75.231 87.0161 74.566C87.0873 74.6295 87.1804 74.6658 87.2283 74.7657C87.3693 75.0585 87.5263 74.9393 87.5276 74.6874C87.5302 74.1098 87.6513 73.8738 87.9858 73.9373C88.0896 73.9577 88.2605 74.0111 88.2911 73.9294C88.613 73.0715 89.2648 72.9943 89.6266 72.2579C89.8162 71.8732 89.7809 71.2819 90.0696 70.9449C90.3204 70.6521 90.5132 70.2152 90.6988 69.8998C90.6988 69.6967 90.7021 69.6059 90.6988 69.5174C90.6755 68.9341 90.6875 68.4098 91.1743 68.5426C91.2049 68.5505 91.2581 68.4337 91.2814 68.3576C91.2954 68.3122 91.2848 68.209 91.2628 68.1749C91.0639 67.8617 90.8465 67.4577 91.1125 67.0878C91.3506 66.7564 91.2448 66.2481 91.441 65.9655C91.4623 65.9349 91.6393 66.0983 91.6366 66.1562C91.6093 66.7111 91.727 67.0492 92.0689 66.9233C92.333 66.8268 92.2924 66.3956 92.2751 66.0563C92.2445 65.4673 92.4001 65.2812 92.7293 65.2903C92.7872 65.2915 92.9282 64.8296 92.8923 64.6753C92.8211 64.3689 92.6575 64.1204 92.5238 63.8594C92.2511 63.3272 92.1913 62.9572 92.3662 62.7518C92.5631 62.5203 92.7413 62.5907 92.9069 62.8835C92.9601 62.9776 93.1151 63.0639 93.1178 63.0559C93.2621 62.602 93.6465 62.7847 93.7576 62.4727C93.9059 62.0551 94.007 61.5773 94.1567 61.1404C94.2019 61.0088 94.0941 60.6468 94.0024 60.4732C93.7802 60.0545 93.8228 59.7299 94.0343 59.3464C94.2238 59.0025 94.4167 58.7971 94.708 58.8425C94.8437 58.8641 94.9874 58.7268 95.1443 58.6541C95.0133 58.4079 94.9129 58.2207 94.8138 58.0334C95.0515 57.5356 95.0661 56.9713 94.8577 56.3403C94.9488 56.2813 95.0492 56.1474 95.1291 56.1769C95.5687 56.3426 95.8068 55.8603 96.0449 55.3848C96.1513 55.1726 96.0342 54.6359 95.8407 54.5633C95.6352 54.4872 95.4104 54.5428 95.4343 54.0095C95.7037 54.0095 95.9618 54.0095 96.2198 54.0095C96.3502 53.6929 96.6189 53.5454 96.6289 53.0733C96.0329 52.6852 95.6359 52.9905 95.421 54.0084H95.4337C95.1184 54.0084 94.8025 53.9947 94.4872 54.0174C94.3961 54.0243 94.2797 54.0935 94.2225 54.2058C93.9418 54.7494 93.7111 54.6177 93.4503 54.1445C93.298 53.8688 93.1258 53.5658 93.2362 53.2344C93.4231 52.6716 93.5175 53.3559 93.6625 53.3956C94.1194 53.5227 94.579 53.4977 95.0865 53.4047C95.1071 52.3868 95.1197 51.4233 95.157 50.4633C95.1603 50.3793 95.3179 50.2636 95.4077 50.2523C95.4975 50.2409 95.592 50.343 95.6844 50.3952C95.6538 50.5223 95.6312 50.6562 95.5926 50.7743C95.3512 51.5153 95.3558 51.513 95.7742 51.8602C95.9504 52.0066 96.0981 52.2846 96.2797 52.3675C96.3954 52.4208 96.5697 52.2676 96.6794 52.1224C96.7319 52.0531 96.7326 51.7513 96.6894 51.6174C96.6182 51.395 96.4932 51.2248 96.4253 51.0965C96.5683 50.6233 96.7027 50.1774 96.8424 49.7132C96.9548 49.888 97.0652 50.0593 97.1855 50.2466C97.4177 49.6009 97.3352 48.92 97.2713 48.1393C96.8996 47.8931 96.442 48.3753 96.0642 47.817C96.4652 47.1328 96.8776 46.47 97.2587 45.7597C97.4157 45.4669 97.3518 45.1128 97.1762 44.8553C97.0652 45.0277 96.9548 45.1991 96.8424 45.3738C96.7027 44.9109 96.5683 44.4649 96.4247 43.9883C96.4227 43.9928 96.4553 43.8725 96.4852 43.8748C97.1044 43.9202 96.9807 42.7956 97.3006 42.3769C96.7399 41.7732 97.5819 41.2569 97.3438 40.6339C97.3006 40.5204 97.4117 40.0824 97.5134 39.9882C97.9198 39.6103 97.9338 38.8285 98.1686 38.2792C98.4353 37.654 98.2078 36.8959 98.275 36.206L98.2697 36.2026ZM25.1582 24.9081C25.0165 25.0818 24.7259 24.7913 24.7112 24.4894C24.7033 24.3169 24.6906 24.1342 24.7146 23.9719C24.7485 23.7416 24.7824 23.4102 24.8769 23.3319C24.976 23.2502 25.1615 23.3671 25.2792 23.484C25.4063 23.6111 25.4994 23.8392 25.663 24.1172C25.4562 24.4474 25.3205 24.7096 25.1589 24.907L25.1582 24.9081ZM48.0723 115.353C47.4731 115.231 47.4924 115.998 47.2981 116.476C47.1532 116.245 47.0115 116.021 46.8745 115.804C46.8678 115.725 46.8432 115.631 46.8592 115.604C47.209 114.995 47.5635 114.393 47.9021 113.816C47.9945 113.955 48.065 114.011 48.067 114.072C48.0777 114.427 48.0723 114.785 48.0723 115.353ZM49.9639 114.58C49.6526 114.844 49.7225 115.565 49.4504 115.92C49.2396 115.283 49.356 114.667 49.3533 114.077C49.3533 113.985 49.5941 113.815 49.7238 113.813C49.8788 113.811 50.0005 113.994 49.9679 114.326C49.9592 114.411 49.9845 114.562 49.9639 114.579V114.58ZM61.4609 105.123C61.3225 104.996 61.3159 104.882 61.4236 104.748C61.7648 104.327 61.5945 103.216 62.1845 103.116C62.4013 103.766 62.2044 104.419 62.3069 105.123H61.4602H61.4609ZM62.5962 103.529C62.5915 102.914 62.5922 102.298 62.5995 101.683C62.6002 101.618 62.6767 101.494 62.6993 101.506C62.7744 101.543 62.8981 101.622 62.9015 101.699C62.9208 102.135 62.8755 102.588 62.9228 103.013C62.9567 103.316 63.1003 103.583 63.1935 103.86C62.7226 104.18 62.6008 104.12 62.5962 103.529ZM68.0933 99.2962C67.9908 99.4517 67.8858 99.6037 67.7853 99.7524C67.5539 99.4426 67.7574 98.6857 67.2579 98.6653C66.9672 98.6528 66.6839 98.1603 66.3959 97.8834C66.4352 97.8164 66.4737 97.6962 66.5077 97.7007C67.0045 97.7608 67.3783 97.4181 67.6902 96.7702C67.8419 96.4547 68.1525 96.4604 68.209 96.7316C68.2542 96.9472 68.2649 97.2332 68.219 97.442C68.1638 97.695 67.8611 97.813 68.1305 98.2068C68.3819 98.5722 68.3174 98.9569 68.0919 99.2984L68.0933 99.2962ZM96.2092 41.595C95.9677 41.5644 95.7037 41.7823 95.4609 41.4226C95.7483 40.8937 95.9298 40.3468 95.4815 39.7964C95.4769 39.7907 95.5467 39.5127 95.6059 39.4764C95.695 39.4208 95.8859 39.4253 95.8946 39.4753C96.0023 40.1028 96.3236 40.5635 96.3668 41.2251C96.3748 41.3443 96.2591 41.603 96.2092 41.5962V41.595Z" fill="#ED0006"/>
</svg>
