<svg width="99" height="98" viewBox="0 0 99 98" fill="none" xmlns="http://www.w3.org/2000/svg">
<path d="M42.3672 55.0723C42.3792 55.0858 42.3894 55.0976 42.4023 55.1119C42.3859 55.0831 42.375 55.0744 42.3672 55.0723Z" fill="#ED0006"/>
<path d="M78.762 4.34689C78.4483 3.91464 78.1357 3.47878 77.8204 3.04875C77.6323 2.79264 77.4096 2.71948 77.4626 2.94577C77.4985 3.10094 77.6453 3.37716 77.6375 3.47381C77.6261 3.61862 77.5383 3.64226 77.225 3.25886C76.8809 2.8382 76.7105 2.79871 76.786 3.06728C76.8481 3.2876 76.9166 3.51418 77.0365 3.92181C77.2226 3.88384 77.2807 3.84291 77.3744 3.86489C77.42 3.87544 77.5297 3.99167 77.6135 4.08116C77.6338 4.10273 77.6969 4.25277 77.6844 4.26351C77.5534 4.38082 77.4468 4.51633 77.694 5.07634C77.7259 5.1487 77.5588 5.11553 77.449 5.06393C77.3438 5.01473 77.2409 4.90412 77.2961 5.13396C77.4453 5.7531 77.3371 5.68648 76.8 4.9669C76.5503 4.63191 76.3141 4.20513 76.0033 3.97108C76.063 4.14306 76.1202 4.30978 76.1785 4.47726C76.1002 4.41247 76.0167 4.36139 75.927 4.26501C75.7783 4.10545 75.6267 3.9177 75.4209 3.67728C75.8202 4.42238 76.1689 5.07336 76.5315 5.75041C76.2408 5.51468 75.9216 5.26411 76.0916 5.68063C76.2924 6.17313 76.1785 6.24979 76.0568 6.32412C76.0238 6.34358 75.7909 6.09314 75.6542 5.92786C75.5784 5.83601 75.4521 5.59416 75.4537 5.54245C75.4565 5.42889 75.5111 5.37118 75.5722 5.3305C75.6463 5.28047 75.5924 5.11774 75.4405 4.88082C75.3561 4.74919 75.1935 4.53561 75.1444 4.51265C75.0369 4.46225 74.886 4.46478 74.9167 4.52594C75.1596 5.01017 74.9636 5.05538 75.122 5.43391C75.3093 5.88252 74.9806 5.48807 74.9112 5.51223C74.8044 5.54909 75.1678 6.14978 74.9592 6.08959C74.8593 6.06103 74.6973 5.9219 74.5622 5.83183C74.7175 6.19528 74.7496 6.46965 75.1176 7.00374C75.3852 7.39173 75.3071 7.55488 75.0157 7.33929C74.7764 7.16206 74.5333 6.97507 74.2918 6.79226C74.1473 6.68289 74.0074 6.5887 73.8556 6.45919C73.638 6.27367 73.4601 6.16924 73.4742 6.36501C73.4829 6.48425 73.5975 6.72074 73.6587 6.88846C73.533 6.80927 73.4103 6.73235 73.2876 6.65543C73.6933 7.39602 73.1868 7.14426 73.3925 7.67958C73.478 7.90219 73.3911 7.99121 73.4716 8.21206C73.6551 8.71321 73.8941 9.25874 74.1204 9.81093C73.5537 9.23734 72.9805 8.53729 72.7676 8.76693C72.7554 8.77938 72.6664 8.70998 72.6282 8.65696C72.0233 7.82397 71.9581 7.93501 72.1371 8.51759C72.2028 8.7308 72.139 8.83118 72.2135 9.04951C72.3143 9.34578 72.4906 9.70628 72.626 10.0196C72.4266 9.88441 72.3016 9.79989 72.1789 9.71657C72.2935 10.009 72.4048 10.2778 72.4963 10.5309C72.6392 10.9243 72.6025 10.9596 72.263 10.7326C72.1449 10.6537 72.0035 10.5207 71.8713 10.4116C71.761 10.122 71.6671 9.87442 71.5781 9.6394C71.717 9.73282 71.8394 9.81443 71.9656 9.89939C71.7258 9.40229 71.4357 9.01947 71.0318 8.612C70.9537 8.7664 70.7222 8.80224 70.8224 9.13584C70.9451 9.54404 70.7876 9.56217 70.805 9.80502C70.8292 10.1333 70.3374 9.54742 70.3167 9.76284C70.4207 9.92572 70.5168 10.0671 70.5988 10.2062C70.7536 10.4693 70.8172 10.808 70.6951 10.7217C70.5076 10.5895 70.3147 10.4454 70.1158 10.2837C69.7573 9.99246 69.7524 10.2358 69.7261 10.4376C69.7187 10.4972 69.843 10.7117 69.8663 10.8153C69.9196 11.0541 69.8157 11.0632 69.5867 10.8633C69.349 10.6559 69.4356 10.849 69.5592 11.0667C69.6745 11.2699 69.8161 11.48 69.9394 11.6765C69.7634 11.5975 69.5521 11.4378 69.4843 11.4856C69.3031 11.6159 69.1837 11.8355 69.0457 12.0142C68.9011 11.9136 68.7711 11.8229 68.5872 11.6944C68.7605 11.9644 68.9053 12.1745 69.0208 12.3774C69.0772 12.4764 69.0899 12.5731 69.0995 12.6459C69.102 12.664 68.9972 12.5905 68.9644 12.543C68.6674 12.1115 68.468 11.8945 68.3559 12.0376C68.267 12.1531 68.3037 12.4814 67.9247 12.1494C67.6722 11.9279 67.8466 12.2243 67.8721 12.3507C67.9102 12.5414 67.8695 12.6619 67.9462 12.8814C68.0522 13.1855 68.2365 13.5544 68.3129 13.7271C68.2262 14.0525 67.8731 13.9152 68.1673 14.6044C68.249 14.7957 68.1289 14.8658 68.0591 14.9314C68.0014 14.9848 67.8707 14.8779 67.6729 14.6072C67.4785 14.3404 67.2848 13.9845 67.0619 13.845C66.6366 13.895 66.7661 14.7734 65.9849 14.292C65.8497 14.2086 65.9436 14.4669 66.0841 14.7066C66.2052 14.9127 66.3393 15.1202 66.4873 15.3581C66.3126 15.2364 66.1804 15.1446 66.0535 15.0562C66.3636 15.8268 66.1707 15.9538 65.7767 15.8017C65.662 15.7567 65.5513 15.6613 65.669 15.93C65.8861 16.4259 65.495 15.9299 65.3614 15.9218C65.5115 16.1697 65.74 16.4844 65.805 16.6662C65.9539 17.0837 66.1104 17.2755 66.3849 17.454C66.4465 17.4942 66.6019 17.7092 66.6842 17.8437C66.7466 17.9452 66.8106 18.1434 66.7906 18.1343C66.4256 17.9617 66.0156 17.4831 65.5879 16.8393C65.1186 16.6549 64.5733 16.3511 64.6653 17.0574C65.0977 17.785 65.9058 18.6017 65.9304 19.2542C65.7625 19.1274 65.5695 18.9813 65.3554 18.8189C65.3195 18.5907 65.2852 18.371 65.2515 18.1591C65.0708 17.9101 64.9162 17.6897 64.7569 17.4781C64.5446 17.1971 64.2476 17.0238 64.3419 17.2364C64.5854 17.7843 64.2347 17.8546 64.8891 18.7294C64.9209 18.7718 64.9247 18.9129 64.916 18.9764C64.8971 19.1099 64.7466 18.9485 64.5728 18.7589C64.0995 18.2422 63.9863 18.2234 64.1436 18.655C64.2808 19.0304 64.4152 19.4032 64.5447 19.7611C64.7472 19.9286 64.8835 20.0406 65.003 20.1391C65.1233 20.4323 65.2317 20.6966 65.3427 20.9682C64.9774 20.5959 64.6279 20.2428 64.2779 19.8819C64.1786 19.7793 64.034 19.5733 63.9814 19.5507C63.8006 19.474 63.6361 19.435 63.4711 19.3818C63.2783 19.3192 63.7155 19.8123 63.8051 20.0164C64.0148 20.4945 64.1843 20.946 64.3554 21.3717C64.3106 21.4289 64.2827 21.4757 64.2462 21.5107C64.0645 21.6804 63.8901 21.4981 63.5161 20.7204C63.4263 20.5338 63.4122 20.4714 63.2955 20.3906C63.136 20.2803 63.0762 20.4914 63.227 20.732C63.4512 21.0891 63.778 21.4066 63.9947 21.9418C63.4417 21.2721 63.5337 21.8622 63.062 21.41C62.8634 21.22 62.9258 21.5646 63.1396 21.8909C63.3623 22.2307 63.6884 22.5599 63.7926 22.9504C63.4759 22.6041 63.4052 22.7312 63.2345 22.6792C63.0653 22.6273 62.7472 22.3001 62.5355 22.1797C62.4436 22.1272 62.4483 22.2842 62.4265 22.3679C62.4198 22.3922 62.4723 22.4922 62.4983 22.5577C62.7073 23.0862 62.1604 22.7974 62.6143 23.5902C62.569 23.5578 62.5151 23.5391 62.4806 23.4918C62.2325 23.1546 61.9727 22.814 61.7537 22.4691C61.693 22.3738 61.7628 22.2652 61.7585 22.1464C61.7575 22.1089 61.6969 21.9705 61.6875 21.962C61.603 21.8842 61.4838 21.7638 61.4518 21.7733C61.3779 21.795 61.2899 21.8234 61.3103 21.9567C61.3813 22.4185 61.6471 23.1295 60.9386 22.5333C60.9279 22.5243 60.9689 22.6981 61.0113 22.8057C61.1301 23.1095 61.1125 23.2562 60.8821 23.0581C60.5698 22.7896 60.5416 22.9509 60.4458 23.0264C60.3726 23.0839 60.4 23.2828 60.1692 23.1241C59.6684 22.7785 59.6344 23.0531 59.9433 23.7738C60.147 24.2494 60.308 24.6955 60.4869 25.1535C60.6569 25.5892 60.4736 25.4857 60.22 25.3173C59.9697 25.151 59.9457 25.1816 60.0631 25.5261C60.1805 25.8705 60.2015 26.0224 59.9357 25.8881C59.4655 25.6511 59.4536 25.7707 59.6781 26.3985C59.7456 26.5876 59.8409 26.7989 59.9046 26.9847C59.9776 27.1965 59.7985 27.1819 59.585 26.9499C59.4362 26.7883 59.2842 26.5925 59.1354 26.4137C59.059 26.512 58.9954 26.5929 58.9341 26.6726C58.6529 26.469 58.3801 26.2711 58.107 26.0735C58.2754 26.4943 58.4778 26.9522 58.0194 26.5766C57.823 26.4157 57.8318 26.5026 57.9299 26.7273C58.011 26.9129 58.0848 27.0934 58.1657 27.2857C58.2507 27.3133 58.3245 27.3454 58.3835 27.3527C58.4138 27.3563 58.4062 27.2957 58.4371 27.3006C58.4668 27.3052 58.544 27.354 58.5651 27.3874C58.6354 27.4997 58.7516 27.7017 58.7403 27.7128C58.6343 27.8066 58.658 28.0904 58.2686 27.7619C58.0067 27.5404 58.4672 28.2596 58.3013 28.1495C58.0932 28.0112 57.8901 27.937 57.5701 27.5005C57.2318 27.0396 57.2246 27.1592 57.3711 27.5068C57.5466 27.9221 57.2798 27.7826 57.2734 27.9807C57.4052 28.329 57.5451 28.6986 57.6605 29.0049C57.3376 28.8671 57.0286 28.7123 56.7649 28.6394C56.7038 28.6222 56.7519 28.8875 56.835 29.023C57.0097 29.3083 57.2072 29.5406 57.194 29.7567C57.179 29.9988 57.2646 30.3612 57.321 30.686C57.3363 30.7769 57.4018 30.9194 57.4438 31.038C57.1752 30.7978 57.0491 30.8138 56.8914 30.7956C56.8143 30.7874 56.5108 30.3971 56.2203 30.0836C56.2201 30.4065 55.8004 30.195 56.1132 30.9597C56.2737 31.3526 55.9295 31.0784 55.6827 30.877C55.8097 31.2771 56.0557 31.8215 55.496 31.3374C55.3911 31.2468 55.2832 31.2873 55.2987 31.3973C55.3232 31.5724 55.5547 31.9624 55.4245 31.9862C55.1956 32.027 55.4364 32.5313 55.632 32.988C55.7705 33.1012 55.9083 33.2134 56.043 33.3233C56.1553 33.6081 56.2587 33.8706 56.3619 34.1334C56.1669 33.9858 55.9739 33.8397 55.7657 33.6822C55.6867 33.4958 55.6072 33.3081 55.5249 33.1133C55.2357 32.8841 55.1097 32.9924 55.3671 33.3728C55.734 33.9149 55.7856 34.2034 55.9666 34.5983C55.7516 34.5921 56.1655 35.2697 56.045 35.362C56.0103 35.388 55.9222 35.382 55.853 35.3048C55.6999 35.1341 55.5438 34.9073 55.3873 34.7067C55.042 34.2641 54.955 34.2006 54.9052 34.3227C54.867 34.4181 54.9189 34.575 55.1032 34.8233C55.3786 35.1941 55.3763 35.3135 55.3461 35.4624C55.2997 35.6895 54.9189 35.3149 54.7895 35.359C54.601 35.424 54.5225 35.6565 54.4154 35.7926C54.0949 35.5504 53.8307 35.3212 53.6232 35.2079C53.5413 35.1634 53.5828 35.3752 53.5684 35.4703C53.6531 35.5585 53.7376 35.6447 53.8229 35.7364C53.9046 35.8243 53.9864 35.9187 54.0685 36.0104C54.0684 36.0858 54.0895 36.1903 54.0643 36.2312C54.015 36.3096 53.8872 36.1989 53.6975 35.9558C53.5809 35.806 53.4537 35.69 53.4326 35.6674C53.3029 35.9528 53.8465 36.586 54.0479 37.0604C53.9196 36.9719 53.7914 36.8831 53.6628 36.7949C53.7247 36.9661 53.7888 37.1448 53.837 37.2788C53.5628 37.1495 53.2973 37.0232 53.0329 36.8998C52.8512 36.8156 52.8365 36.9369 52.9623 37.2396C53.1381 37.661 53.0344 37.6914 52.7452 37.4686C52.6591 37.4018 52.572 37.3642 52.5362 37.3875C52.5004 37.4107 52.5284 37.5272 52.5291 37.6037C52.6113 37.6954 52.7062 37.8212 52.7733 37.8732C53.0551 38.0911 53.2685 38.3577 53.3997 38.7434C53.1068 38.4913 52.8794 38.4225 52.4966 37.8871C52.3234 37.6451 52.1319 37.6839 52.2189 37.9131C52.3808 38.3407 52.5566 38.7793 52.7418 39.2523C52.9139 39.2916 53.0411 39.3214 53.1675 39.3502C53.5502 40.2235 53.5774 40.2614 53.4908 40.3071C53.3155 40.3991 53.0313 39.8747 52.8042 39.5689C52.6152 39.3141 52.4986 39.2138 52.4026 39.2121C52.3733 39.2114 52.3787 39.2664 52.351 39.2677C52.2579 39.2707 52.1323 39.1936 51.957 38.9156C51.8712 38.7795 51.8029 38.6408 51.7269 38.5042C51.8428 38.5711 51.9586 38.638 52.081 38.7089C51.9763 38.3513 51.7555 38.0884 51.4827 37.8798C51.3863 38.0034 51.2904 38.1263 51.1941 38.2499C51.3225 38.5771 51.4793 38.9299 51.5666 39.221C51.6078 39.3581 51.5552 39.4409 51.4775 39.4357C51.2076 39.4165 51.1812 39.3948 51.3205 39.6704C51.5964 40.217 51.9826 40.823 52.0908 41.2875C51.853 41.0394 51.6163 40.792 51.3679 40.5325C51.5121 40.9004 51.6403 41.2279 51.8042 41.6463C51.2511 41.2284 50.6962 40.8086 50.2736 40.4891C49.9843 40.3956 50.2219 40.8053 50.2215 40.9457C50.2208 41.1769 50.1518 41.3489 50.0136 41.3966C49.8543 41.4516 50.1229 41.9737 50.0156 42.0391C49.9564 42.0752 49.6898 41.7654 49.8268 42.1519C49.9693 42.5544 49.8596 42.7351 50.1328 43.2723C50.3681 43.7347 50.0719 43.6807 50.3385 44.1797C50.3425 44.1871 50.2374 44.1527 50.2226 44.1495C49.9172 43.8499 49.7012 43.3632 49.3532 43.12C49.2729 43.2237 49.24 43.4451 49.0703 43.4414C48.8094 43.4357 49.3298 44.2728 48.9745 44.2804C48.7222 44.0587 48.2738 43.665 47.9316 43.3643C47.9691 43.7001 47.9534 43.8786 48.0281 44.1397C48.1092 44.4242 48.276 44.7869 48.3973 45.1088C48.4026 45.1231 48.336 45.0811 48.3029 45.0662C48.1014 44.8393 47.8999 44.6124 47.67 44.3534C47.8402 44.7501 47.961 45.0599 47.8132 45.1034C47.6558 45.1495 47.7467 45.4012 48.0971 45.8691C48.1608 45.9539 48.2546 46.1994 48.2277 46.2063C47.9805 46.2765 48.4988 46.8733 48.6524 47.2198C48.5178 47.2345 48.2811 47.0063 48.077 46.8239C47.9803 46.6253 47.892 46.4388 47.7917 46.2473C47.7804 46.2261 47.6673 46.1318 47.6574 46.1475C47.6163 46.2104 47.4868 46.1729 47.6322 46.4575C47.6658 46.5232 47.7096 46.603 47.7547 46.6636C48.1274 47.1634 48.1586 47.4455 48.2688 47.7998C48.0551 47.5638 47.7909 47.2121 47.6654 47.1454C47.398 47.0025 47.2029 47.0077 46.8897 46.9297C47.0003 47.1651 47.1551 47.4626 47.2566 47.7192C47.4545 48.2199 47.4392 48.2452 47.1683 48.1198C47.0912 48.0838 46.9159 47.9112 46.9113 47.9519C46.8909 48.167 46.4129 47.6762 46.4625 47.8383C46.5536 48.1371 46.5071 48.2783 46.5855 48.5407C46.6394 48.7206 46.8878 49.0747 47.0344 49.3253C46.9952 49.889 46.3271 49.6331 46.6665 50.6668C46.4144 50.4835 46.1372 50.2808 45.8331 50.0591C45.8662 50.3578 45.7795 50.5866 45.96 50.9757C46.284 51.6734 45.7653 51.3826 46.0488 51.9918C46.2048 52.3263 46.0243 52.191 45.8956 52.0126C45.5488 51.5311 45.483 51.5913 45.3072 51.5742C45.1258 51.5564 45.0698 51.3127 45.1077 51.3188C44.7594 50.9318 44.5108 50.6555 44.2673 50.385C44.3488 50.5938 44.3622 50.6636 44.4009 50.7224C44.4987 50.87 44.6373 51.024 44.7059 51.1536C44.8672 51.4573 44.721 51.3373 44.595 51.2692C44.1887 51.0501 44.23 51.4989 43.9868 51.6217C44.1754 52.0707 44.4179 52.6199 44.612 53.1324C44.6657 53.2739 44.6038 53.3502 44.5365 53.3651C44.4524 53.3837 44.18 53.0195 44.0024 52.6522C43.936 52.5153 43.9067 52.3984 43.8568 52.2626C43.663 52.2172 43.6284 52.3837 43.753 52.762C43.6244 52.6717 43.4937 52.58 43.3523 52.4813C43.4564 52.7365 43.5644 53.0014 43.6746 53.2718C43.7011 53.3 43.743 53.3415 43.7844 53.3901C43.911 53.5391 44.0377 53.4577 44.1452 53.7835C44.1881 53.914 44.114 54.0199 44.0271 53.9477C43.8523 53.8025 43.632 53.5282 43.3918 53.264C43.2662 53.4255 43.1666 53.6266 43.006 53.7394C42.8339 53.8594 42.9174 54.3902 42.1931 53.7317C42.4888 54.3779 42.7709 54.9934 42.9845 55.4597C42.9204 55.5412 42.8904 55.5457 42.8912 55.5855C42.8965 55.86 42.5586 55.5557 42.3896 55.5358C42.6629 56.0364 42.3836 55.9979 42.6005 56.4446C42.6343 56.5144 42.6849 56.6193 42.6743 56.636C42.5281 56.858 42.3725 57.0672 42.2192 57.2796C41.7924 56.882 41.7225 57.1974 41.307 56.8209C41.4127 57.091 41.5289 57.364 41.6148 57.6119C41.7648 58.0449 41.6361 58.1914 41.3173 57.9812C41.2263 57.9211 41.1227 57.831 41.0292 57.7656C40.5935 57.4598 40.529 57.5116 40.6707 58.1433C40.7368 58.4377 40.7561 58.4844 40.4935 58.3305C40.0559 58.0747 39.9108 58.2565 40.0721 58.7773C40.2031 59.2 39.8757 59.0467 40.0272 59.4068C40.2108 59.8434 40.0252 59.8807 40.2207 60.3031C40.3784 60.6438 40.1924 60.4667 40.0656 60.3588C39.8108 60.1425 39.8614 60.3915 39.7682 60.4204C39.6772 60.4485 39.7599 60.6318 39.8991 60.8711C40.0182 61.0756 40.2132 61.3673 40.2271 61.4644C40.2573 61.6747 40.0757 61.5753 39.8527 61.3779C39.8156 61.3448 39.7631 61.3394 39.7639 61.3405C40.1578 62.0909 39.6373 61.5444 39.5276 61.583C39.4183 61.621 39.4623 61.8102 39.7435 62.1946C39.8297 62.3129 39.8927 62.4653 40.0708 62.7953C39.5771 62.3604 39.1265 61.9632 38.7702 61.6496C38.6836 61.8221 38.6107 61.8921 38.5925 62.029C38.5783 62.1301 38.9363 62.6758 38.5724 62.3619C38.3259 62.1494 38.292 62.2755 38.2551 62.3842C38.2293 62.4605 38.2508 62.6138 38.31 62.78C38.4735 63.2398 38.0712 62.686 37.9323 62.7626C38.0613 63.0222 38.2684 63.4394 38.5371 63.9807C38.18 63.5822 37.9786 63.3573 37.7441 63.096C37.5762 63.3112 37.4049 63.5312 37.2363 63.7473C37.4138 64.0568 37.5728 64.3333 37.7864 64.705C37.5307 64.5116 37.3019 64.3329 37.081 64.1734C36.8734 64.0237 36.8104 64.0972 36.9131 64.3758C37.0241 64.6753 37.1508 64.9875 37.2765 65.3078C36.7592 64.8171 36.6237 64.9815 36.7409 65.3562C36.853 65.7144 36.7117 65.7985 36.9184 66.2356C37.0978 66.6156 36.8259 66.2915 36.7448 66.2672C36.6115 66.2265 36.5086 66.2471 36.353 66.1594C35.975 65.9467 35.8195 66.0094 36.0504 66.6283C36.0805 66.7096 35.8558 66.5898 35.7496 66.5634C35.8778 66.891 36.006 67.2185 36.1397 67.5599C36.0783 67.6376 36.0155 67.7195 35.9532 67.7985C36.0966 68.1805 36.2355 68.5513 36.3639 68.8937C36.2335 68.8208 36.0145 68.6867 36.0227 68.7056C36.2953 69.334 36.1667 69.3556 35.7425 69.0491C35.4631 68.8473 35.6655 69.316 35.8065 69.6497C35.7151 69.5858 35.6305 69.534 35.5374 69.4595C35.4183 69.3647 35.2926 69.2512 35.1382 69.1187C35.1819 68.9211 35.1238 68.4523 34.9987 68.2045C34.8935 68.3401 34.8002 68.4596 34.7068 68.579C34.6109 68.702 34.5093 68.8177 34.4205 68.9503C34.3185 69.1031 34.2286 69.2716 34.1329 69.433C34.6037 70.2392 33.9273 69.5151 33.963 69.7392C34.1305 70.0236 34.2932 70.2995 34.4697 70.5994C34.0839 70.3069 33.7611 70.0721 34.0845 70.8052C34.1448 70.9419 34.0959 71.067 34.0105 71.0357C33.7637 70.944 33.4303 70.6959 33.2144 70.6543C33.0686 70.6263 33.0362 70.8084 33.007 70.9625C32.9909 71.049 33.1436 71.3473 33.1191 71.4197C33.0594 71.5897 32.9876 71.7571 32.8308 71.7851C32.6156 71.8243 32.9254 72.434 32.8504 72.6035C32.7456 72.8398 32.5641 72.9747 32.4329 73.1762C32.3929 73.2375 32.3498 73.3332 32.413 73.4897C32.6267 74.0182 32.5068 74.0278 32.15 73.7579C31.9329 73.5933 31.9164 73.8289 31.6191 73.5569C31.5362 73.4813 31.4398 73.5813 31.4888 73.7012C31.6413 74.0729 31.6219 74.2221 31.537 74.3278C31.4098 74.4851 31.2798 74.6463 31.2474 74.923C31.234 75.036 31.4499 75.4109 31.136 75.1382C30.8258 74.8689 30.9216 75.2408 30.794 75.2631C31.1642 75.8674 30.6605 75.7819 31.2925 76.6013C31.3417 76.665 31.3653 76.7983 31.4012 76.8996C31.3009 76.7943 31.2011 76.6923 31.1003 76.5832C30.9995 76.4741 30.8984 76.359 30.7339 76.1759C30.5986 76.3487 30.4567 76.5304 30.3158 76.7129C30.236 76.816 30.1509 76.9112 30.0773 77.0229C30.0198 77.1103 29.6305 76.6098 29.706 76.8848C29.7675 77.1101 29.7427 77.2582 29.802 77.4372C29.9241 77.8053 29.8949 77.9981 29.9604 78.2954C30.0749 78.8137 30.0743 78.8167 29.6914 78.5396C29.5188 78.4151 29.561 78.4711 29.3574 78.7376C29.2101 78.9309 29.26 79.4563 28.6324 78.9146C28.5318 79.0291 28.4308 79.1439 28.3301 79.2583C28.7368 80.1353 28.2975 79.9872 28.199 80.2493C28.1467 80.3876 28.0444 80.4612 27.965 80.5616C28.0985 80.927 28.39 81.4843 27.9118 81.1056C27.6941 80.9332 27.5264 80.8707 27.6234 81.1377C27.7473 81.4777 27.7765 81.6764 27.6827 81.7749C27.4721 81.995 27.283 82.2458 27.1084 82.5154C27.0707 82.5735 27.0884 82.7342 27.1578 82.9036C27.2872 83.2188 27.1303 83.0747 26.999 82.958C26.8457 82.822 26.8349 82.8389 26.9012 83.0104C27.1651 83.6917 26.9429 83.7771 26.5972 83.6146C26.3731 83.509 26.2456 83.5162 26.2187 83.6735C26.1984 83.7916 26.3692 84.1446 26.3521 84.2671C26.3272 84.4367 26.1644 84.4386 26.1403 84.6093C26.1221 84.731 26.3263 85.1436 26.2662 85.1894C26.181 85.2547 25.9347 85.0849 25.7789 85.0534C25.716 85.0407 25.7098 85.1267 25.678 85.1682C25.3738 85.5575 25.0989 85.9883 24.7529 86.3189C24.6005 86.4634 24.9728 87.1659 24.7519 87.2366C24.5329 87.3068 24.4477 87.5808 24.3037 87.7654C24.1916 87.9085 24.0729 88.0434 23.9725 88.2026C23.947 88.2419 23.9433 88.3352 23.9903 88.4448C24.2199 88.9818 24.1203 89.0452 23.7364 88.7158C23.446 88.8043 23.1568 88.9064 23.2628 89.5138C23.2988 89.7205 23.3135 89.8746 23.25 89.9551C22.9916 90.2796 22.7368 90.6098 22.4814 90.9386C22.3375 91.1231 22.1935 91.3077 22.0496 91.4923C22.3861 92.5536 21.7867 92.4207 21.6326 92.8559C21.6025 92.9402 21.4547 92.9127 21.5047 93.055C21.8607 94.0637 21.2951 93.8932 21.1701 94.2841C21.1423 94.3716 20.9922 94.3453 21.0455 94.4851C21.1947 94.8763 21.09 95.0157 21.2293 95.3623C21.3976 95.7811 21.6785 95.9379 21.9305 96.1687C22.1121 96.3347 22.3179 96.6482 22.5354 96.8209C22.8984 97.1081 23.0226 97.1636 22.8743 96.6701C22.7654 96.3075 22.8102 96.2116 23.1104 96.4667C23.2548 96.5892 23.288 96.5973 23.2277 96.4435C22.9839 95.8228 23.1128 95.702 23.5453 96.0142C23.6685 96.1033 23.6919 96.0992 23.5844 95.8831C23.313 95.3369 23.7562 95.5679 23.5985 95.2292C23.2566 94.4936 23.7725 95.0744 23.8614 95.0084C23.8965 94.9817 23.9191 94.9055 23.8757 94.8016C23.6731 94.318 23.6813 94.1541 24.0653 94.434C24.3294 94.6267 24.346 94.5759 24.2301 94.238C24.113 93.8952 24.068 93.7053 24.3534 93.8709C24.7676 94.1116 24.7428 94.0661 24.2952 93.256C24.2445 93.1642 24.2444 93.0784 24.2464 93.0196C24.2474 93.0032 24.3346 93.0772 24.3849 93.1309C24.9799 93.7644 25.0132 93.7961 24.8479 93.2399C24.7336 92.8547 24.8708 92.916 25.1252 93.0854C25.3774 93.2536 25.3967 93.169 25.2915 92.8852C25.1811 92.5871 25.0547 92.2765 24.9359 91.9727C25.0349 92.0476 25.0939 92.0721 25.1295 92.1222C25.4162 92.5269 25.6133 92.7579 25.7442 92.6385C25.9113 92.4845 25.4515 91.6031 25.8012 91.6697C25.8342 91.6761 25.7359 91.4538 25.6946 91.3342C25.6734 91.2728 25.6438 91.2037 25.6145 91.1279C25.8901 91.3283 26.1664 91.5302 26.4359 91.7261C26.549 91.4312 26.9636 91.5164 26.6116 90.6591C26.7206 90.6107 26.6961 90.3733 26.9772 90.5685C27.1909 90.7163 27.1617 90.6401 26.9076 90.223C26.7903 90.031 26.5554 89.6865 26.7762 89.8568C27.256 90.2269 27.1791 89.7774 27.3182 89.722C27.31 89.3096 26.8714 88.6807 26.6615 88.2137C27.0295 88.3994 27.5517 88.9501 27.8579 89.0548C27.9965 88.9421 28.0809 88.8091 27.8233 88.2978C27.9555 88.3896 28.0875 88.4818 28.2204 88.5747C28.169 88.4431 28.1213 88.3149 28.0655 88.1807C28.0026 88.0303 28.0949 88.1252 28.183 88.1572C28.6055 88.309 28.8027 88.0363 28.7888 87.4486C28.7878 87.3856 28.7544 87.2357 28.7725 87.2517C29.0761 87.5279 29.1446 87.4188 29.2309 87.322C29.3356 87.2042 29.4238 87.0809 29.166 86.5698C29.2828 86.4914 29.2255 86.1355 29.6355 86.526C29.7798 86.6636 29.7872 86.6211 29.6792 86.4037C29.5139 86.0711 29.587 86.0031 29.6518 85.9207C29.7791 85.7589 29.8874 85.5717 30.0029 85.3938C29.7355 84.8658 29.8628 84.7815 29.974 84.6828C30.0987 84.572 30.0783 84.2235 30.547 84.6711C30.5034 84.518 30.46 84.3645 30.4106 84.1914C30.5226 84.2701 30.6541 84.3629 30.7838 84.4539C30.7203 84.2806 30.6544 84.1 30.5944 83.9371C30.6831 83.923 31.0811 84.4461 30.8839 83.9616C30.8569 83.8954 30.8125 83.8079 30.8108 83.7693C30.8077 83.6896 30.7911 83.5704 30.8466 83.5868C30.9463 83.6157 31.1828 83.8462 31.2035 83.7877C31.2362 83.6955 31.0514 83.308 31.1109 83.2672C31.3021 83.1341 31.181 82.5021 31.8491 83.1128C31.9425 82.8062 32.4119 82.9646 32.04 82.0831C32.576 82.6255 32.2488 81.9989 32.24 81.7958C32.2374 81.7263 32.3073 81.6991 32.381 81.7615C32.8735 82.1787 32.8703 81.9465 32.6025 81.3545C32.8964 81.4245 32.0295 79.9744 32.8594 80.7461C33.1612 80.674 33.4521 80.5697 33.3475 79.9668C33.2639 79.4834 33.3526 79.2693 33.7332 79.4614C33.88 79.5353 33.8789 79.4938 33.8276 79.3104C33.7383 78.9918 33.7092 78.7285 33.6508 78.4192C33.8793 78.5855 34.1565 78.7881 34.4053 78.9695C34.5093 78.8354 34.6043 78.7138 34.6944 78.5988C34.5856 78.249 34.321 77.7838 34.3467 77.5334C34.5083 77.7355 34.6737 77.9776 34.8065 78.1008C35.1249 78.3954 35.0865 78.0996 35.1535 77.9948C35.1725 77.9644 34.9828 77.6331 34.8642 77.4387C34.7146 77.1922 34.6399 77.0365 34.6901 76.9504C34.7403 76.8644 34.8559 76.9532 35.0304 77.1526C35.1757 77.319 35.3203 77.4863 35.421 77.6021C35.381 77.3772 35.2823 77.0996 35.3336 77.0271C35.3795 76.962 35.703 77.2496 35.7008 77.1515C35.6968 77.0064 35.5302 76.6864 35.6123 76.6017C35.8074 76.4029 35.9654 76.1518 36.1487 75.9369C36.2483 75.8196 36.3596 75.7293 36.1259 75.2239C36.0832 75.1318 36.1995 75.0755 36.3056 75.143C36.8205 75.4692 36.9571 75.284 36.7339 74.6028C36.6382 74.3103 36.8546 74.3425 36.6089 73.8944C36.5988 73.8761 36.6726 73.8523 36.7342 73.8968C37.0302 74.1081 36.9584 73.9442 36.685 73.5577C36.3907 73.1419 36.3899 73.0698 36.6538 73.237C37.0859 73.5111 37.0917 73.2214 36.741 72.4269C37.0632 72.7184 37.3721 72.9981 37.6178 73.2203C37.6777 73.1209 37.5843 72.7385 37.3376 72.0731C37.325 72.0387 37.4423 72.0714 37.5032 72.1384C37.6516 72.3027 37.8033 72.5076 37.9494 72.6902C38.1676 72.4101 38.3713 72.1501 38.5702 71.8944C38.3759 71.563 38.2144 71.2876 37.9921 70.9084C38.3046 71.2349 38.5429 71.4844 38.7753 71.727C38.94 71.5163 39.1002 71.3115 39.2773 71.0836C39.0516 70.6166 38.8056 70.1065 38.5602 69.5978C38.6077 69.6338 38.6555 69.6543 38.7043 69.7099C38.8573 69.8829 39.05 70.1606 39.1545 70.2303C39.3558 70.365 39.3441 70.1896 39.2178 69.8875C39.105 69.6185 39.0101 69.3614 38.9077 69.0997C38.9929 69.157 39.0865 69.2308 39.1607 69.2666C39.235 69.3025 39.2899 69.3003 39.3546 69.3168C39.4186 69.3323 39.5018 69.315 39.5456 69.3732C39.736 69.6261 39.6988 69.6944 39.6651 69.7707C39.6448 69.8158 39.6935 69.9512 39.711 70.0455C39.7904 70.1044 39.9231 70.2363 39.9424 70.212C40.1018 70.0106 40.2409 69.7811 40.3864 69.56C40.0172 68.6252 40.5764 68.8605 40.657 68.4918C40.6841 68.3685 41.1057 68.9152 41.0182 68.618C40.9488 68.3819 40.8422 68.1259 40.9577 68.0965C40.6696 67.5452 40.8779 67.4768 40.6982 67.0177C40.5684 66.686 40.8221 67.0284 40.9543 67.1805C41.0557 67.2974 41.157 67.4122 41.3331 67.6138C41.42 67.5032 41.5133 67.3838 41.6056 67.2636C41.7015 67.1406 41.8031 67.0249 41.892 66.8923C41.9939 66.7395 42.0857 66.5728 42.1813 66.4115C41.7593 65.6137 42.3822 66.3101 42.4341 66.1916C42.4553 66.1432 42.4808 66.076 42.4358 65.9699C42.2209 65.4644 42.257 65.3267 42.6455 65.6305C42.7584 65.7188 42.8646 65.6936 42.86 65.5922C42.8549 65.4767 42.7204 65.216 42.6459 65.0212C42.2411 63.9661 42.4373 63.7342 43.2347 64.3254C43.521 63.9585 43.8087 63.5897 44.098 63.2186C43.9612 62.8577 43.8213 62.4881 43.7368 62.2643C43.7699 62.0984 44.2026 62.6621 43.9687 62.1375C43.9376 62.0683 43.8846 61.9453 43.8958 61.9493C44.1047 62.0328 44.372 62.2275 44.4182 62.0199C44.4344 61.9482 44.5975 62.0386 44.7243 62.1314C45.0135 62.3434 44.9357 62.0178 45.0625 61.9944C44.55 61.1142 45.1768 61.4612 44.9048 60.7931C44.6602 60.1929 45.2115 60.6369 45.4155 60.6197C45.6298 60.6009 45.0913 59.565 45.5866 59.8428C45.6289 59.8665 45.6823 59.9138 45.7305 59.9508C46.2032 60.3155 45.9156 59.768 45.7849 59.4116C45.9227 59.5087 46.1438 59.7238 46.1844 59.6831C46.4205 59.456 46.6188 59.1753 46.8167 58.8953C46.8426 58.8598 46.7909 58.7177 46.7753 58.6252C46.6774 58.482 46.5641 58.3362 46.4861 58.198C46.3574 57.9701 46.2937 57.8015 46.5229 58.0055C46.7044 58.1675 46.7455 58.1369 46.629 57.8794C46.5424 57.6883 46.4725 57.5067 46.3954 57.3222C46.3306 57.2733 46.2797 57.2314 46.2344 57.201C46.0902 57.1041 45.9128 56.928 45.9109 56.7649C45.9094 56.6079 46.0249 56.5849 46.089 56.5034C47.203 57.6533 47.2612 57.6875 47.2146 57.1685C46.9368 56.915 46.644 56.8413 46.3787 56.1361C46.604 56.3067 46.896 56.5924 47.0432 56.6249C47.3265 56.688 47.8291 57.1064 47.8471 56.7332C47.8537 56.5951 47.7079 56.2789 47.7059 56.1289C47.7032 55.9368 47.9602 56.0532 47.7624 55.6232C47.6364 55.3488 47.7111 55.3732 47.8752 55.5051C48.073 55.664 48.2623 55.8 48.4556 55.9458C48.3914 55.7671 48.3265 55.5873 48.2626 55.4082C48.5331 55.6028 48.9377 55.9986 48.66 55.3428C48.5264 55.0269 48.5776 54.9417 48.6586 54.8865C48.8025 54.7901 48.6172 54.5023 48.3193 54.072C48.1412 53.8151 48.1842 53.584 48.3869 53.7534C48.5604 53.8982 48.7841 54.1873 49.0067 54.4369C49.2842 54.082 49.569 53.7537 49.8136 53.3708C49.8628 53.2948 49.7591 53.0111 49.7224 52.8033C49.8065 52.8622 49.9387 52.954 50.0375 53.0229C49.9504 52.654 49.8472 52.2771 49.7912 51.9496C49.7702 51.8256 49.8166 51.7039 49.9036 51.7718C50.1741 51.9836 50.3121 52.0009 50.3702 51.8566C50.5268 51.4653 51.0525 51.5423 50.7342 50.5484C50.8871 50.4377 50.858 50.0387 51.3803 50.5096C51.4353 50.5589 51.4074 50.3283 51.4181 50.2276C51.3323 50.1409 51.2304 50.0183 51.1637 49.9743C50.9561 49.8375 50.8659 49.6299 50.8912 49.5479C50.9137 49.474 51.0315 49.4973 51.1501 49.5756C51.4394 49.7681 51.3479 49.614 51.1016 49.2291C50.8039 48.7642 50.7849 48.53 51.0258 48.6942C51.2103 48.8198 51.4172 48.9983 51.6015 49.1242C51.8257 49.2769 51.9713 49.1009 51.8664 48.8016C51.7788 48.5519 51.6473 48.2655 51.5662 48.0217C51.4736 47.7422 51.5647 47.7098 51.7954 47.9052C52.1476 48.2029 51.8659 47.7505 51.7983 47.4731C52.0703 47.7218 52.3698 47.995 52.5767 48.1843C52.7126 48.0108 52.8087 47.8876 52.9046 47.7646C53.0803 47.5386 53.2553 47.3115 53.4334 47.0887C53.5122 46.9893 53.6054 46.928 53.4348 46.5189C53.193 45.9384 53.6793 46.4481 53.8392 46.4675C53.5202 45.8295 53.7563 45.8347 53.8716 45.711C53.9533 45.6226 53.7962 45.324 53.7526 45.1257C53.678 44.7892 53.9578 45.0271 54.2223 45.2428C54.4424 44.9602 54.671 44.681 54.8845 44.3818C54.9273 44.3231 54.9685 44.2343 54.9165 44.0798C54.7271 43.5135 54.8335 43.3955 55.2511 43.6573C55.5182 43.8244 55.6268 43.7012 55.4698 43.2776C55.3309 42.9024 55.3368 42.7524 55.6415 42.9819C55.7123 43.0353 55.8168 43.0619 55.8056 43.0364C55.4572 42.2538 55.931 42.49 55.9526 42.17C55.962 42.0324 55.8973 41.8072 55.8602 41.5869C55.9738 41.6462 56.3148 42.041 56.0736 41.462C55.8719 40.9772 56.4127 41.2678 56.0012 40.518C56.2681 40.7198 56.5096 40.9026 56.7897 41.1142C57.0351 40.7991 57.2864 40.4673 57.5476 40.1498C57.6145 40.0688 57.6554 39.9783 57.525 39.6688C57.2414 38.9953 57.7085 39.4946 57.938 39.6229C57.7792 39.2298 57.5777 38.7942 57.9974 39.0875C58.41 39.3755 58.4038 39.0269 58.4845 38.8151C58.1633 38.1715 58.457 38.2526 58.5123 38.0499C58.5344 37.9679 58.517 37.8196 58.4546 37.6515C58.3894 37.4763 58.3674 37.4119 58.4781 37.4966C58.9395 37.8489 59.0223 37.6687 58.8212 37.099C58.6929 36.7351 58.8295 36.623 58.9766 36.7289C59.2993 36.9616 59.4484 36.9572 59.5098 36.7826C59.5756 36.5955 59.7758 36.6049 59.6008 36.0792C59.4611 35.6598 59.6328 35.4802 60.0249 35.7426C60.2399 35.8865 60.2735 35.7823 60.344 35.7178C60.4306 35.6399 60.3894 35.4684 60.1152 35.0917C60.029 34.9733 59.9675 34.8211 59.8647 34.6287C60.1256 34.901 60.3616 35.1473 60.6014 35.3969C60.5269 35.1938 60.41 34.954 60.4009 34.8331C60.3865 34.6356 60.574 34.757 60.7838 34.9274C60.8143 34.9522 60.8182 34.8414 60.7835 34.7557C60.6912 34.5295 60.7017 34.4785 60.8792 34.6071C61.0004 34.6947 61.1733 34.7307 61.1443 34.6566C60.8398 33.8911 61.1699 33.9137 61.2847 33.6681C61.3298 33.5695 61.4361 33.5033 61.3602 33.302C61.1741 32.8088 61.2185 32.6983 61.6004 32.9983C61.709 33.0838 61.8379 33.0403 61.7969 32.9416C61.5584 32.3675 61.6071 32.2642 62.0241 32.5247C62.5546 32.8552 62.0339 31.8121 62.1193 31.5422C62.1262 31.5198 61.9653 31.2522 61.8766 31.1438C61.4064 30.5712 61.2983 30.1582 61.1216 29.7121C61.2205 29.8066 61.3426 29.8909 61.4136 29.9978C61.5451 30.196 61.655 30.4109 61.7602 30.6129C62.0757 31.217 62.0614 31.1784 62.43 31.4924C62.8652 31.8634 63.0016 31.7516 62.9109 31.3791C62.8416 31.0955 62.7997 30.882 62.8827 30.7768C62.9763 30.6591 63.023 30.4768 63.09 30.3225C62.6468 29.4333 63.5789 30.5768 63.4575 30.1108C63.3833 29.8255 63.6982 29.97 63.4925 29.4626C63.3974 29.2274 63.4956 28.9959 63.6448 29.1054C63.9758 29.3482 64.078 29.2726 64.1725 29.1472C64.5185 28.6876 64.8676 28.2323 65.2309 27.7964C65.3176 27.6926 65.3351 27.5415 65.1835 27.171C65.1344 27.0511 65.2243 26.9535 65.3168 27.0289C65.6002 27.2597 65.6939 27.2042 65.774 27.0965C66.2299 26.4906 66.6728 25.8657 67.1822 25.3346C67.2948 25.2168 66.7862 24.2474 67.4667 24.9164C67.675 24.65 67.8872 24.389 68.0851 24.109C68.1115 24.0728 68.0663 23.939 68.0542 23.8502C67.5009 22.9616 67.4382 22.7829 67.8922 23.1152C68.4067 23.4915 68.0177 22.8011 68.0577 22.6301C68.3124 22.8227 68.5541 23.0052 68.8421 23.2232C68.8168 22.9353 69.2131 23.1381 69.0097 22.6363C68.7514 21.9989 69.2605 22.2277 68.8852 21.4647C68.8159 21.3232 68.9595 21.1693 69.0921 21.282C69.4224 21.5625 69.4653 21.3294 69.7581 21.5687C70.1179 21.8624 69.7709 21.3425 69.7654 21.2124C70.0366 21.3674 70.4397 21.7307 70.1065 20.9747C69.8152 20.3137 70.3567 20.9111 70.459 20.9213C70.4752 20.656 70.1236 20.1166 70.183 19.9297C70.3937 20.1654 70.5951 20.3903 70.8139 20.6345C70.749 20.4783 70.7153 20.3395 70.6525 20.2558C70.2888 19.7695 70.2515 19.5711 70.3852 19.4995C70.4291 19.4759 70.5119 19.4505 70.4734 19.3742C70.1489 18.7266 70.5155 19.0778 70.6648 19.0687C70.8434 19.0581 70.9624 19.1165 71.2792 19.5702C71.3306 19.6439 71.4824 19.7347 71.5099 19.7077C71.5801 19.6415 71.7089 19.5853 71.63 19.3945C71.4274 18.9066 71.5983 19.0464 71.8479 19.2225C72.0229 19.3459 71.9947 19.0533 71.7965 18.7725C71.4406 18.269 71.4579 18.157 71.5208 17.9977C71.5595 17.8972 71.3419 17.6602 71.202 17.5724C70.9826 17.4345 70.92 17.23 70.9413 17.1513C70.9631 17.074 71.0861 17.1247 71.1551 17.1204C71.5692 17.6408 71.8943 18.208 72.2878 18.591C72.5196 18.3792 72.5292 17.8676 72.3168 17.0563C72.5902 17.2555 72.8659 17.456 73.1312 17.6492C73.3506 17.5053 73.3176 16.9891 73.8936 17.4036C73.4348 16.4131 74.2632 16.9416 73.9675 16.1405C73.8644 16.0626 73.7719 16.0131 73.67 15.9076C73.6111 15.8465 73.5281 15.6914 73.4721 15.5854C73.399 15.4469 73.3589 15.3062 73.2754 15.1841C73.0648 14.875 72.879 14.6136 72.9759 14.5022C73.0753 14.3873 73.2758 14.6694 73.4875 14.9598C73.6867 15.233 73.9842 15.6831 74.0532 15.5841C74.1914 15.386 74.7571 16.0921 74.9351 16.0114C74.5231 15.3827 74.344 14.783 73.818 14.1299C73.7185 14.0062 73.4889 13.6607 73.7395 13.8096C74.154 14.2348 74.5148 15.0198 74.95 15.3134C75.1125 15.1055 75.2715 14.9003 75.4044 14.7309C75.4435 14.5847 75.0838 14.1015 75.3877 14.2676C75.8703 14.5305 76.3248 14.7224 76.4001 14.3028C76.4333 14.1154 76.6343 14.2375 76.882 14.4161C76.9642 14.4755 76.9786 14.3138 76.9518 14.1806C76.9213 14.0309 76.8205 13.8057 76.7289 13.6001C76.5924 13.2947 76.5443 13.0746 76.71 13.142C76.7895 13.1749 77.0015 13.4606 77.1527 13.6274C77.2033 13.6828 77.2883 13.7728 77.2947 13.7618C77.3151 13.7296 77.3302 13.6399 77.3037 13.601C76.9759 13.1214 76.6826 12.7451 77.2107 13.0876C77.4824 13.2635 77.5864 13.0368 77.2646 12.3898C77.3976 12.4827 77.5291 12.5755 77.7305 12.7166C77.3999 12.2042 77.1016 11.7422 76.76 11.2127C77.17 11.5086 77.4858 11.7013 77.8932 12.3471C78.0292 12.5628 78.197 12.7607 78.22 12.6323C78.2262 12.6002 78.082 12.3592 77.9923 12.2369C77.7967 11.9697 77.7367 11.8068 77.7722 11.7172C77.8231 11.5871 77.9673 11.6796 78.2351 12.0501C78.3211 12.1687 78.4319 12.2534 78.5321 12.3547C78.6443 12.2224 78.8529 12.2179 78.7891 11.8537C78.6198 11.5675 78.4569 11.292 78.2427 10.9297C78.5532 11.2546 78.7915 11.5041 79.0203 11.7431C78.9515 11.3105 78.2599 10.7793 78.2368 10.37C78.4834 10.5566 78.7241 10.7383 78.9887 10.9389C78.931 10.7728 78.8728 10.6053 78.8137 10.4347C78.8436 10.4517 78.8783 10.4536 78.9178 10.4963C79.5896 11.218 79.581 11.2106 79.4659 10.6307C79.439 10.4954 79.4466 10.3473 79.5312 10.384C79.6832 10.4509 79.9035 10.6477 80.1 10.8019C80.4016 11.0378 80.3942 10.8823 80.3058 10.5518C80.1708 10.0486 80.2041 10.046 80.6383 10.2399C80.7389 10.2846 80.8115 10.3614 80.7274 10.1756C80.479 9.62796 80.5885 9.58325 80.9637 9.8816C81.1891 10.0607 81.2115 9.92455 81.0829 9.61484C80.9991 9.41357 80.9481 9.27497 81.1578 9.44333C81.4975 9.71515 81.5941 9.55894 81.4951 9.23218C81.3985 8.91303 81.389 8.73885 81.4684 8.63001C81.5579 8.50721 81.7345 8.49505 81.6739 8.17385C81.4587 7.7872 81.006 7.22719 81.2779 7.19405C81.2899 7.19269 81.1635 6.93366 81.1138 6.88136C81.0121 6.77354 80.9072 6.75399 80.8251 6.64714C80.4698 6.1838 80.2136 5.91998 80.1045 6.0977C80.0939 6.11432 79.7947 5.7826 79.6726 5.59732C79.4918 5.32264 79.54 5.13174 79.2654 4.78996C79.1949 4.93623 78.986 4.65919 78.7716 4.36385L78.762 4.34689ZM41.488 59.866C41.3709 59.9942 41.2127 60.0716 41.4997 60.6608C41.3016 60.511 41.1086 60.3649 40.9164 60.2198C40.8654 59.9563 40.2564 59.0301 40.9601 59.6566C41.0247 59.7141 41.0407 59.6084 41.0746 59.5725C41.1096 59.5354 41.1172 59.4539 41.179 59.4638C41.22 59.4699 41.3334 59.5918 41.417 59.6837C41.4389 59.7074 41.5002 59.8536 41.4887 59.8671L41.488 59.866ZM70.0609 16.4983C69.8402 16.3364 69.6581 16.2033 69.4785 16.0712C69.2267 15.6141 69.6997 15.7203 69.0473 14.9568C69.0279 14.9339 68.9993 14.7881 69.0017 14.7311C69.0026 14.7127 69.0916 14.7777 69.1333 14.8303C69.5723 15.3875 69.9315 15.9316 70.0609 16.4983ZM74.5022 9.18166C74.4686 9.25795 74.4303 9.32546 74.6249 9.57909C74.6708 9.63881 74.7564 9.62678 74.8125 9.62944C74.8415 9.63052 74.8341 9.56965 74.8659 9.57769C74.8979 9.58542 74.9854 9.6503 75.0027 9.68036C75.0684 9.7946 75.1626 9.96004 75.1605 10.006C75.1491 10.3723 74.8143 10.1733 74.3814 9.79269C74.122 9.22359 73.9387 8.72853 74.2242 8.73489C74.2674 8.73581 74.3792 8.84919 74.459 8.90972C74.4756 9.00303 74.5218 9.13549 74.5022 9.18166ZM77.4463 7.0618C77.432 7.20403 77.3355 7.24813 77.641 7.65513C77.796 7.862 77.9298 8.06778 77.8395 8.09693C77.8156 8.10401 77.6405 7.9096 77.5579 7.79058C77.3681 7.5175 77.2677 7.46601 77.1671 7.4512C77.0794 7.43814 76.9902 7.47445 76.8831 7.36113C76.768 7.23939 76.5111 6.81089 76.5216 6.78786C76.6255 6.56795 76.7656 6.39517 76.919 6.24271C76.9329 6.22804 77.104 6.43425 77.2658 6.60601C77.3224 6.7434 77.4548 6.98777 77.4471 7.06288L77.4463 7.0618Z" fill="#ED0006"/>
<path d="M73.9697 9.69361C74.0745 9.94784 74.1789 10.2004 74.2804 10.4462C74.4212 10.5649 74.5573 10.6794 74.9222 10.9877C74.6523 10.9793 74.8136 11.4164 74.3957 11.0991C73.9706 10.7765 73.9795 11.0784 74.2756 11.7068C74.1817 11.6163 74.0888 11.533 73.9918 11.4315C73.8487 11.2815 73.5766 10.9707 73.5767 10.9834C73.5843 11.2635 73.0541 10.6163 73.0262 10.818C73.0185 10.8738 73.0668 10.999 73.0851 11.0878C73.1507 11.4108 73.5771 11.9682 73.7194 12.3473C73.3121 12.0054 72.9607 11.569 72.665 11.0382C72.6356 10.9859 72.5741 10.8854 72.5681 10.8829C72.4987 10.849 72.4097 10.7904 72.3819 10.8177C72.3544 10.8447 72.3756 10.9469 72.4044 11.0449C72.4358 11.1504 72.5578 11.3659 72.5387 11.3964C72.5049 11.4513 72.3962 11.4047 72.3191 11.4008C72.2587 11.2836 72.1763 11.1471 72.1407 11.0519C72.0289 10.7513 71.8823 10.662 71.837 10.6919C71.7896 10.7225 71.8388 10.9819 71.8595 11.0074C72.326 11.5827 72.5693 12.118 72.8841 12.6672C72.9607 12.8009 73.0874 12.9518 73.1915 13.0952C73.3142 13.0774 73.04 12.6641 73.0343 12.5234C73.2671 12.7591 73.5526 13.0988 73.7203 13.2022C73.8576 13.287 73.8392 13.0928 74.1503 13.4857C74.3896 13.7877 74.6399 14.0057 74.8888 14.2903C74.9622 14.3745 75.0931 14.6038 75.1112 14.6779C75.1454 14.8159 75.0892 14.8608 75.1215 14.9972C75.1622 15.1693 75.62 15.7653 75.6406 15.6876C75.7211 15.3921 76.2273 16.1993 76.4824 16.3741C76.5198 16.2455 76.7275 16.3369 76.5778 15.9357C76.1604 15.28 75.5628 14.6241 74.9825 13.5337C75.6414 14.4216 76.0827 14.9822 76.54 15.4196C77.005 15.8638 77.0624 15.9678 76.899 15.4562C76.793 15.1241 76.8071 15.0231 77.0795 15.2216C77.2843 15.3709 77.2601 15.3223 76.9753 14.8548C76.8925 14.7188 76.8271 14.5869 76.6439 14.2531C76.8822 14.4769 77.0833 14.6765 77.27 14.8377C77.5002 15.036 77.7166 15.1995 77.9183 15.3616C77.8951 15.1913 77.5613 14.6876 77.9143 14.9971C77.963 15.04 78.0523 15.1132 78.0497 15.1061C77.8995 14.6775 77.9929 14.5043 77.7632 13.9848C77.5523 13.5082 77.2074 13.1382 76.9307 12.7197C76.698 12.3678 76.527 12.2603 76.3374 12.0965C76.3212 12.0822 76.2019 11.8522 76.1936 11.7927C76.1771 11.6733 76.204 11.602 76.2144 11.5017C75.9688 11.1631 75.7654 10.8721 75.5567 10.6012C75.497 10.5239 75.4135 10.4901 75.3551 10.4626C75.3443 10.4581 75.3948 10.5932 75.4311 10.6424C75.7205 11.0348 75.9404 11.3698 75.7976 11.4453C75.6613 11.5183 75.6588 11.6831 76.1151 12.3091C76.2617 12.5102 76.3343 12.8108 76.441 13.0666C76.3595 12.9977 76.2553 12.9384 76.2 12.8573C76.0654 12.659 75.9435 12.4454 75.8343 12.2468C75.6291 11.8744 75.6374 11.8823 75.4644 11.8637C75.4117 11.8585 75.3363 11.8157 75.2051 11.7634C75.1401 11.3513 75.0935 11.0044 75.0176 10.6266C75.0043 10.5609 74.8693 10.3654 74.79 10.229C74.6634 10.3532 74.1665 9.71842 73.9703 9.69497L73.9697 9.69361Z" fill="#ED0006"/>
<path d="M78.4285 10.1996C78.3677 10.0721 78.1406 9.80928 78.0009 9.6611C77.9381 9.59447 77.8715 9.61702 77.8611 9.66795C77.8506 9.71887 77.8882 9.84149 77.9415 9.95984C78.0523 10.2058 78.0235 10.2475 77.8323 10.0408C77.7351 9.93544 77.5956 9.69434 77.5283 9.64038C77.1743 9.35805 76.9241 9.13336 77.0957 8.93241C77.1084 8.91717 76.9489 8.63256 76.9448 8.62969C76.708 8.47265 76.4675 8.15936 76.1919 7.79101C75.7949 7.2601 75.7552 7.24573 75.6806 7.43835C75.6546 7.5063 75.6249 7.60298 75.6951 7.75831C75.8876 8.18265 75.6279 7.88489 75.5177 7.85108C75.4461 7.82893 75.5721 8.13354 75.55 8.21547C75.5412 8.24913 75.376 8.08208 75.2829 8.0076C75.5836 8.61476 76.1058 9.38904 75.9508 9.64475C75.9039 9.72192 76.1368 9.96177 76.2717 10.0672C76.7205 10.4173 76.815 10.7953 76.9779 11.1677C77.3017 11.4607 77.675 11.9295 78.0979 12.5741C77.4999 12.2543 77.4378 12.417 77.8586 13.268C77.9175 13.3872 78.036 13.5623 78.1314 13.6811C78.3016 13.8929 78.4052 13.9594 78.4592 13.8961C78.6558 13.663 78.6642 13.6751 78.3641 12.5036C78.5465 12.6341 78.7195 12.7581 78.9019 12.8886C79.1052 13.4573 78.577 13.2462 79.2493 14.2728C79.5198 14.4847 79.4404 14.1742 79.5555 14.1539C79.1904 13.4458 79.4653 13.4989 79.5463 13.3191C79.5648 13.2786 79.5187 13.1525 79.4938 13.021C79.3216 12.9496 79.17 12.8865 78.9812 12.8079C78.648 12.3485 78.2978 11.8652 77.9607 11.4005C77.8844 11.4041 77.8421 11.417 77.7855 11.4064C77.6799 11.3857 77.3615 11.0566 77.2544 10.8616C77.1102 10.5991 77.1254 10.462 77.2912 10.525C77.3758 10.5574 77.6024 10.8574 77.5684 10.6631C77.5494 10.5558 77.2967 10.1947 77.5014 10.3312C77.9292 10.7555 78.2971 11.5328 78.7317 11.8638C78.8177 11.7544 78.9041 11.6445 79.0016 11.5194C78.8254 11.1071 78.6538 10.6713 78.4289 10.199L78.4285 10.1996Z" fill="#ED0006"/>
<path d="M74.9838 8.66934C74.6328 8.49697 74.3436 8.43759 73.9606 8.20586C73.7267 8.06423 73.9571 8.37851 74.062 8.5293C74.5153 9.18091 74.3261 9.01877 74.066 8.84637C73.7942 8.66644 73.8672 8.947 74.1626 9.36359C74.3684 9.65341 74.5798 9.93994 74.7885 10.228C74.8811 10.0665 75.1428 10.1076 74.7737 9.37279C74.9987 9.6299 75.1971 9.85681 75.439 10.1337C75.2743 9.62831 75.3978 9.41361 74.9836 8.66962L74.9838 8.66934Z" fill="#ED0006"/>
<path d="M79.4464 11.9642C79.4424 11.9955 79.5859 12.2289 79.6739 12.3491C79.7617 12.4695 79.9275 12.6615 79.9545 12.659C80.2334 12.6356 80.4071 12.4811 79.8715 11.4606C79.5973 11.4538 79.4861 11.6602 79.4464 11.9642Z" fill="#ED0006"/>
</svg>
